<?xml version="1.0" standalone="no"?>
<!DOCTYPE svg PUBLIC "-//W3C//DTD SVG 1.1//EN" "http://www.w3.org/Graphics/SVG/1.1/DTD/svg11.dtd" >
<svg>
<metadata>
Created by FontForge 20110222 at Mon Mar  7 13:15:36 2011
 By www-data
Copyright vader381 2010
"5x8 LCD HD44780U A02" is based on "LCD Dot Matrix Condensed" by "Havar Henriksen" (http://fontstruct.fontshop.com/fontstructors/farside), which is based on "LCD Dot Matrix" by "Havar Henriksen" (http://fontstruct.fontshop.com/fontstructors/farside)
</metadata>
<defs>
<font id="5x8-LCD-HD44780U-A02" horiz-adv-x="767" >
  <font-face 
    font-family="5x8 LCD HD44780U A02"
    font-weight="400"
    font-stretch="normal"
    units-per-em="1024"
    panose-1="0 0 4 0 0 0 0 0 0 0"
    ascent="819"
    descent="-205"
    x-height="621"
    cap-height="877"
    bbox="12 -79 621 1133"
    underline-thickness="51"
    underline-position="127"
    unicode-range="U+0020-2122"
  />
    <missing-glyph />
    <glyph glyph-name="space" unicode=" " horiz-adv-x="768" 
 />
    <glyph glyph-name="exclam" unicode="!" horiz-adv-x="768" 
d="M268 12v97h97v-97h-97zM268 268v97h97v-97h-97zM268 396v97h97v-97h-97zM268 524v97h97v-97h-97zM268 652v97h97v-97h-97zM268 780v97h97v-97h-97z" />
    <glyph glyph-name="quotedbl" unicode="&#x22;" horiz-adv-x="768" 
d="M140 524v97h97v-97h-97zM396 524v97h97v-97h-97zM140 652v97h97v-97h-97zM396 652v97h97v-97h-97zM140 780v97h97v-97h-97zM396 780v97h97v-97h-97z" />
    <glyph glyph-name="numbersign" unicode="#" 
d="M140 12v97h97v-97h-97zM396 12v97h97v-97h-97zM140 140v97h97v-97h-97zM396 140v97h97v-97h-97zM12 268v97h97v-97h-97zM140 268v97h97v-97h-97zM268 268v97h97v-97h-97zM396 268v97h97v-97h-97zM524 268v97h97v-97h-97zM140 396v97h97v-97h-97zM396 396v97h97v-97h-97z
M12 524v97h97v-97h-97zM140 524v97h97v-97h-97zM268 524v97h97v-97h-97zM396 524v97h97v-97h-97zM524 524v97h97v-97h-97zM140 652v97h97v-97h-97zM396 652v97h97v-97h-97zM140 780v97h97v-97h-97zM396 780v97h97v-97h-97z" />
    <glyph glyph-name="dollar" unicode="$" 
d="M268 12v97h97v-97h-97zM12 140v97h97v-97h-97zM140 140v97h97v-97h-97zM268 140v97h97v-97h-97zM396 140v97h97v-97h-97zM268 268v97h97v-97h-97zM524 268v97h97v-97h-97zM140 396v97h97v-97h-97zM268 396v97h97v-97h-97zM396 396v97h97v-97h-97zM12 524v97h97v-97h-97z
M268 524v97h97v-97h-97zM140 652v97h97v-97h-97zM268 652v97h97v-97h-97zM396 652v97h97v-97h-97zM524 652v97h97v-97h-97zM268 780v97h97v-97h-97z" />
    <glyph glyph-name="percent" unicode="%" 
d="M396 12v97h97v-97h-97zM524 12v97h97v-97h-97zM12 140v97h97v-97h-97zM396 140v97h97v-97h-97zM524 140v97h97v-97h-97zM140 268v97h97v-97h-97zM268 396v97h97v-97h-97zM396 524v97h97v-97h-97zM12 652v97h97v-97h-97zM140 652v97h97v-97h-97zM524 652v97h97v-97h-97z
M12 780v97h97v-97h-97zM140 780v97h97v-97h-97z" />
    <glyph glyph-name="ampersand" unicode="&#x26;" 
d="M140 12v97h97v-97h-97zM268 12v97h97v-97h-97zM524 12v97h97v-97h-97zM12 140v97h97v-97h-97zM396 140v97h97v-97h-97zM12 268v97h97v-97h-97zM268 268v97h97v-97h-97zM524 268v97h97v-97h-97zM140 396v97h97v-97h-97zM12 524v97h97v-97h-97zM268 524v97h97v-97h-97z
M12 652v97h97v-97h-97zM396 652v97h97v-97h-97zM140 780v97h97v-97h-97zM268 780v97h97v-97h-97z" />
    <glyph glyph-name="quotesingle" unicode="'" horiz-adv-x="768" 
d="M268 652v97h97v-97h-97zM268 780v97h97v-97h-97z" />
    <glyph glyph-name="parenleft" unicode="(" horiz-adv-x="768" 
d="M396 12v97h97v-97h-97zM268 140v97h97v-97h-97zM140 268v97h97v-97h-97zM140 396v97h97v-97h-97zM140 524v97h97v-97h-97zM268 652v97h97v-97h-97zM396 780v97h97v-97h-97z" />
    <glyph glyph-name="parenright" unicode=")" horiz-adv-x="768" 
d="M140 12v97h97v-97h-97zM268 140v97h97v-97h-97zM396 268v97h97v-97h-97zM396 396v97h97v-97h-97zM396 524v97h97v-97h-97zM268 652v97h97v-97h-97zM140 780v97h97v-97h-97z" />
    <glyph glyph-name="asterisk" unicode="*" 
d="M268 140v97h97v-97h-97zM12 268v97h97v-97h-97zM268 268v97h97v-97h-97zM524 268v97h97v-97h-97zM140 396v97h97v-97h-97zM268 396v97h97v-97h-97zM396 396v97h97v-97h-97zM12 524v97h97v-97h-97zM268 524v97h97v-97h-97zM524 524v97h97v-97h-97zM268 652v97h97v-97h-97z
" />
    <glyph glyph-name="plus" unicode="+" 
d="M268 140v97h97v-97h-97zM268 268v97h97v-97h-97zM12 396v97h97v-97h-97zM140 396v97h97v-97h-97zM268 396v97h97v-97h-97zM396 396v97h97v-97h-97zM524 396v97h97v-97h-97zM268 524v97h97v-97h-97zM268 652v97h97v-97h-97z" />
    <glyph glyph-name="comma" unicode="," horiz-adv-x="768" 
d="M140 12v97h97v-97h-97zM268 140v97h97v-97h-97zM140 268v97h97v-97h-97zM268 268v97h97v-97h-97z" />
    <glyph glyph-name="hyphen" unicode="-" 
d="M12 396v97h97v-97h-97zM140 396v97h97v-97h-97zM268 396v97h97v-97h-97zM396 396v97h97v-97h-97zM524 396v97h97v-97h-97z" />
    <glyph glyph-name="period" unicode="." horiz-adv-x="768" 
d="M140 12v97h97v-97h-97zM268 12v97h97v-97h-97zM140 140v97h97v-97h-97zM268 140v97h97v-97h-97z" />
    <glyph glyph-name="slash" unicode="/" 
d="M12 140v97h97v-97h-97zM140 268v97h97v-97h-97zM268 396v97h97v-97h-97zM396 524v97h97v-97h-97zM524 652v97h97v-97h-97z" />
    <glyph glyph-name="zero" unicode="0" 
d="M140 12v97h97v-97h-97zM268 12v97h97v-97h-97zM396 12v97h97v-97h-97zM12 140v97h97v-97h-97zM524 140v97h97v-97h-97zM12 268v97h97v-97h-97zM140 268v97h97v-97h-97zM524 268v97h97v-97h-97zM12 396v97h97v-97h-97zM268 396v97h97v-97h-97zM524 396v97h97v-97h-97z
M12 524v97h97v-97h-97zM396 524v97h97v-97h-97zM524 524v97h97v-97h-97zM12 652v97h97v-97h-97zM524 652v97h97v-97h-97zM140 780v97h97v-97h-97zM268 780v97h97v-97h-97zM396 780v97h97v-97h-97z" />
    <glyph glyph-name="one" unicode="1" horiz-adv-x="768" 
d="M140 12v97h97v-97h-97zM268 12v97h97v-97h-97zM396 12v97h97v-97h-97zM268 140v97h97v-97h-97zM268 268v97h97v-97h-97zM268 396v97h97v-97h-97zM268 524v97h97v-97h-97zM140 652v97h97v-97h-97zM268 652v97h97v-97h-97zM268 780v97h97v-97h-97z" />
    <glyph glyph-name="two" unicode="2" 
d="M12 12v97h97v-97h-97zM140 12v97h97v-97h-97zM268 12v97h97v-97h-97zM396 12v97h97v-97h-97zM524 12v97h97v-97h-97zM140 140v97h97v-97h-97zM268 268v97h97v-97h-97zM396 396v97h97v-97h-97zM524 524v97h97v-97h-97zM12 652v97h97v-97h-97zM524 652v97h97v-97h-97z
M140 780v97h97v-97h-97zM268 780v97h97v-97h-97zM396 780v97h97v-97h-97z" />
    <glyph glyph-name="three" unicode="3" 
d="M140 12v97h97v-97h-97zM268 12v97h97v-97h-97zM396 12v97h97v-97h-97zM12 140v97h97v-97h-97zM524 140v97h97v-97h-97zM524 268v97h97v-97h-97zM396 396v97h97v-97h-97zM268 524v97h97v-97h-97zM396 652v97h97v-97h-97zM12 780v97h97v-97h-97zM140 780v97h97v-97h-97z
M268 780v97h97v-97h-97zM396 780v97h97v-97h-97zM524 780v97h97v-97h-97z" />
    <glyph glyph-name="four" unicode="4" 
d="M396 12v97h97v-97h-97zM396 140v97h97v-97h-97zM12 268v97h97v-97h-97zM140 268v97h97v-97h-97zM268 268v97h97v-97h-97zM396 268v97h97v-97h-97zM524 268v97h97v-97h-97zM12 396v97h97v-97h-97zM396 396v97h97v-97h-97zM140 524v97h97v-97h-97zM396 524v97h97v-97h-97z
M268 652v97h97v-97h-97zM396 652v97h97v-97h-97zM396 780v97h97v-97h-97z" />
    <glyph glyph-name="five" unicode="5" 
d="M140 12v97h97v-97h-97zM268 12v97h97v-97h-97zM396 12v97h97v-97h-97zM12 140v97h97v-97h-97zM524 140v97h97v-97h-97zM524 268v97h97v-97h-97zM524 396v97h97v-97h-97zM12 524v97h97v-97h-97zM140 524v97h97v-97h-97zM268 524v97h97v-97h-97zM396 524v97h97v-97h-97z
M12 652v97h97v-97h-97zM12 780v97h97v-97h-97zM140 780v97h97v-97h-97zM268 780v97h97v-97h-97zM396 780v97h97v-97h-97zM524 780v97h97v-97h-97z" />
    <glyph glyph-name="six" unicode="6" 
d="M140 12v97h97v-97h-97zM268 12v97h97v-97h-97zM396 12v97h97v-97h-97zM12 140v97h97v-97h-97zM524 140v97h97v-97h-97zM12 268v97h97v-97h-97zM524 268v97h97v-97h-97zM12 396v97h97v-97h-97zM140 396v97h97v-97h-97zM268 396v97h97v-97h-97zM396 396v97h97v-97h-97z
M12 524v97h97v-97h-97zM140 652v97h97v-97h-97zM268 780v97h97v-97h-97zM396 780v97h97v-97h-97z" />
    <glyph glyph-name="seven" unicode="7" 
d="M140 12v97h97v-97h-97zM140 140v97h97v-97h-97zM140 268v97h97v-97h-97zM268 396v97h97v-97h-97zM396 524v97h97v-97h-97zM12 652v97h97v-97h-97zM524 652v97h97v-97h-97zM12 780v97h97v-97h-97zM140 780v97h97v-97h-97zM268 780v97h97v-97h-97zM396 780v97h97v-97h-97z
M524 780v97h97v-97h-97z" />
    <glyph glyph-name="eight" unicode="8" 
d="M140 12v97h97v-97h-97zM268 12v97h97v-97h-97zM396 12v97h97v-97h-97zM12 140v97h97v-97h-97zM524 140v97h97v-97h-97zM12 268v97h97v-97h-97zM524 268v97h97v-97h-97zM140 396v97h97v-97h-97zM268 396v97h97v-97h-97zM396 396v97h97v-97h-97zM12 524v97h97v-97h-97z
M524 524v97h97v-97h-97zM12 652v97h97v-97h-97zM524 652v97h97v-97h-97zM140 780v97h97v-97h-97zM268 780v97h97v-97h-97zM396 780v97h97v-97h-97z" />
    <glyph glyph-name="nine" unicode="9" 
d="M140 12v97h97v-97h-97zM268 12v97h97v-97h-97zM396 140v97h97v-97h-97zM524 268v97h97v-97h-97zM140 396v97h97v-97h-97zM268 396v97h97v-97h-97zM396 396v97h97v-97h-97zM524 396v97h97v-97h-97zM12 524v97h97v-97h-97zM524 524v97h97v-97h-97zM12 652v97h97v-97h-97z
M524 652v97h97v-97h-97zM140 780v97h97v-97h-97zM268 780v97h97v-97h-97zM396 780v97h97v-97h-97z" />
    <glyph glyph-name="colon" unicode=":" horiz-adv-x="768" 
d="M140 140v97h97v-97h-97zM268 140v97h97v-97h-97zM140 268v97h97v-97h-97zM268 268v97h97v-97h-97zM140 524v97h97v-97h-97zM268 524v97h97v-97h-97zM140 652v97h97v-97h-97zM268 652v97h97v-97h-97z" />
    <glyph glyph-name="semicolon" unicode=";" horiz-adv-x="768" 
d="M140 12v97h97v-97h-97zM268 140v97h97v-97h-97zM140 268v97h97v-97h-97zM268 268v97h97v-97h-97zM140 524v97h97v-97h-97zM268 524v97h97v-97h-97zM140 652v97h97v-97h-97zM268 652v97h97v-97h-97z" />
    <glyph glyph-name="less" unicode="&#x3c;" 
d="M396 12v97h97v-97h-97zM268 140v97h97v-97h-97zM140 268v97h97v-97h-97zM12 396v97h97v-97h-97zM140 524v97h97v-97h-97zM268 652v97h97v-97h-97zM396 780v97h97v-97h-97z" />
    <glyph glyph-name="equal" unicode="=" 
d="M12 268v97h97v-97h-97zM140 268v97h97v-97h-97zM268 268v97h97v-97h-97zM396 268v97h97v-97h-97zM524 268v97h97v-97h-97zM12 524v97h97v-97h-97zM140 524v97h97v-97h-97zM268 524v97h97v-97h-97zM396 524v97h97v-97h-97zM524 524v97h97v-97h-97z" />
    <glyph glyph-name="greater" unicode="&#x3e;" horiz-adv-x="768" 
d="M140 12v97h97v-97h-97zM268 140v97h97v-97h-97zM396 268v97h97v-97h-97zM524 396v97h97v-97h-97zM396 524v97h97v-97h-97zM268 652v97h97v-97h-97zM140 780v97h97v-97h-97z" />
    <glyph glyph-name="question" unicode="?" 
d="M268 12v97h97v-97h-97zM268 268v97h97v-97h-97zM396 396v97h97v-97h-97zM524 524v97h97v-97h-97zM12 652v97h97v-97h-97zM524 652v97h97v-97h-97zM140 780v97h97v-97h-97zM268 780v97h97v-97h-97zM396 780v97h97v-97h-97z" />
    <glyph glyph-name="at" unicode="@" 
d="M140 12v97h97v-97h-97zM268 12v97h97v-97h-97zM396 12v97h97v-97h-97zM12 140v97h97v-97h-97zM268 140v97h97v-97h-97zM524 140v97h97v-97h-97zM12 268v97h97v-97h-97zM268 268v97h97v-97h-97zM524 268v97h97v-97h-97zM140 396v97h97v-97h-97zM268 396v97h97v-97h-97z
M524 396v97h97v-97h-97zM524 524v97h97v-97h-97zM12 652v97h97v-97h-97zM524 652v97h97v-97h-97zM140 780v97h97v-97h-97zM268 780v97h97v-97h-97zM396 780v97h97v-97h-97z" />
    <glyph glyph-name="A" unicode="A" 
d="M12 12v97h97v-97h-97zM524 12v97h97v-97h-97zM12 140v97h97v-97h-97zM524 140v97h97v-97h-97zM12 268v97h97v-97h-97zM140 268v97h97v-97h-97zM268 268v97h97v-97h-97zM396 268v97h97v-97h-97zM524 268v97h97v-97h-97zM12 396v97h97v-97h-97zM524 396v97h97v-97h-97z
M12 524v97h97v-97h-97zM524 524v97h97v-97h-97zM12 652v97h97v-97h-97zM524 652v97h97v-97h-97zM140 780v97h97v-97h-97zM268 780v97h97v-97h-97zM396 780v97h97v-97h-97z" />
    <glyph glyph-name="B" unicode="B" 
d="M12 12v97h97v-97h-97zM140 12v97h97v-97h-97zM268 12v97h97v-97h-97zM396 12v97h97v-97h-97zM12 140v97h97v-97h-97zM524 140v97h97v-97h-97zM12 268v97h97v-97h-97zM524 268v97h97v-97h-97zM12 396v97h97v-97h-97zM140 396v97h97v-97h-97zM268 396v97h97v-97h-97z
M396 396v97h97v-97h-97zM12 524v97h97v-97h-97zM524 524v97h97v-97h-97zM12 652v97h97v-97h-97zM524 652v97h97v-97h-97zM12 780v97h97v-97h-97zM140 780v97h97v-97h-97zM268 780v97h97v-97h-97zM396 780v97h97v-97h-97z" />
    <glyph glyph-name="C" unicode="C" 
d="M140 12v97h97v-97h-97zM268 12v97h97v-97h-97zM396 12v97h97v-97h-97zM12 140v97h97v-97h-97zM524 140v97h97v-97h-97zM12 268v97h97v-97h-97zM12 396v97h97v-97h-97zM12 524v97h97v-97h-97zM12 652v97h97v-97h-97zM524 652v97h97v-97h-97zM140 780v97h97v-97h-97z
M268 780v97h97v-97h-97zM396 780v97h97v-97h-97z" />
    <glyph glyph-name="D" unicode="D" 
d="M12 12v97h97v-97h-97zM140 12v97h97v-97h-97zM268 12v97h97v-97h-97zM396 12v97h97v-97h-97zM12 140v97h97v-97h-97zM524 140v97h97v-97h-97zM12 268v97h97v-97h-97zM524 268v97h97v-97h-97zM12 396v97h97v-97h-97zM524 396v97h97v-97h-97zM12 524v97h97v-97h-97z
M524 524v97h97v-97h-97zM12 652v97h97v-97h-97zM524 652v97h97v-97h-97zM12 780v97h97v-97h-97zM140 780v97h97v-97h-97zM268 780v97h97v-97h-97zM396 780v97h97v-97h-97z" />
    <glyph glyph-name="E" unicode="E" 
d="M12 12v97h97v-97h-97zM140 12v97h97v-97h-97zM268 12v97h97v-97h-97zM396 12v97h97v-97h-97zM524 12v97h97v-97h-97zM12 140v97h97v-97h-97zM12 268v97h97v-97h-97zM12 396v97h97v-97h-97zM140 396v97h97v-97h-97zM268 396v97h97v-97h-97zM396 396v97h97v-97h-97zM12 524
v97h97v-97h-97zM12 652v97h97v-97h-97zM12 780v97h97v-97h-97zM140 780v97h97v-97h-97zM268 780v97h97v-97h-97zM396 780v97h97v-97h-97zM524 780v97h97v-97h-97z" />
    <glyph glyph-name="F" unicode="F" 
d="M12 12v97h97v-97h-97zM12 140v97h97v-97h-97zM12 268v97h97v-97h-97zM12 396v97h97v-97h-97zM140 396v97h97v-97h-97zM268 396v97h97v-97h-97zM396 396v97h97v-97h-97zM12 524v97h97v-97h-97zM12 652v97h97v-97h-97zM12 780v97h97v-97h-97zM140 780v97h97v-97h-97z
M268 780v97h97v-97h-97zM396 780v97h97v-97h-97zM524 780v97h97v-97h-97z" />
    <glyph glyph-name="G" unicode="G" 
d="M140 12v97h97v-97h-97zM268 12v97h97v-97h-97zM396 12v97h97v-97h-97zM524 12v97h97v-97h-97zM12 140v97h97v-97h-97zM524 140v97h97v-97h-97zM12 268v97h97v-97h-97zM524 268v97h97v-97h-97zM12 396v97h97v-97h-97zM396 396v97h97v-97h-97zM524 396v97h97v-97h-97z
M12 524v97h97v-97h-97zM12 652v97h97v-97h-97zM524 652v97h97v-97h-97zM140 780v97h97v-97h-97zM268 780v97h97v-97h-97zM396 780v97h97v-97h-97z" />
    <glyph glyph-name="H" unicode="H" 
d="M12 12v97h97v-97h-97zM524 12v97h97v-97h-97zM12 140v97h97v-97h-97zM524 140v97h97v-97h-97zM12 268v97h97v-97h-97zM524 268v97h97v-97h-97zM12 396v97h97v-97h-97zM140 396v97h97v-97h-97zM268 396v97h97v-97h-97zM396 396v97h97v-97h-97zM524 396v97h97v-97h-97z
M12 524v97h97v-97h-97zM524 524v97h97v-97h-97zM12 652v97h97v-97h-97zM524 652v97h97v-97h-97zM12 780v97h97v-97h-97zM524 780v97h97v-97h-97z" />
    <glyph glyph-name="I" unicode="I" horiz-adv-x="768" 
d="M140 12v97h97v-97h-97zM268 12v97h97v-97h-97zM396 12v97h97v-97h-97zM268 140v97h97v-97h-97zM268 268v97h97v-97h-97zM268 396v97h97v-97h-97zM268 524v97h97v-97h-97zM268 652v97h97v-97h-97zM140 780v97h97v-97h-97zM268 780v97h97v-97h-97zM396 780v97h97v-97h-97z
" />
    <glyph glyph-name="J" unicode="J" 
d="M140 12v97h97v-97h-97zM268 12v97h97v-97h-97zM12 140v97h97v-97h-97zM396 140v97h97v-97h-97zM396 268v97h97v-97h-97zM396 396v97h97v-97h-97zM396 524v97h97v-97h-97zM396 652v97h97v-97h-97zM268 780v97h97v-97h-97zM396 780v97h97v-97h-97zM524 780v97h97v-97h-97z
" />
    <glyph glyph-name="K" unicode="K" 
d="M12 12v97h97v-97h-97zM524 12v97h97v-97h-97zM12 140v97h97v-97h-97zM396 140v97h97v-97h-97zM12 268v97h97v-97h-97zM268 268v97h97v-97h-97zM12 396v97h97v-97h-97zM140 396v97h97v-97h-97zM12 524v97h97v-97h-97zM268 524v97h97v-97h-97zM12 652v97h97v-97h-97z
M396 652v97h97v-97h-97zM12 780v97h97v-97h-97zM524 780v97h97v-97h-97z" />
    <glyph glyph-name="L" unicode="L" 
d="M12 12v97h97v-97h-97zM140 12v97h97v-97h-97zM268 12v97h97v-97h-97zM396 12v97h97v-97h-97zM524 12v97h97v-97h-97zM12 140v97h97v-97h-97zM12 268v97h97v-97h-97zM12 396v97h97v-97h-97zM12 524v97h97v-97h-97zM12 652v97h97v-97h-97zM12 780v97h97v-97h-97z" />
    <glyph glyph-name="M" unicode="M" 
d="M12 12v97h97v-97h-97zM524 12v97h97v-97h-97zM12 140v97h97v-97h-97zM524 140v97h97v-97h-97zM12 268v97h97v-97h-97zM524 268v97h97v-97h-97zM12 396v97h97v-97h-97zM268 396v97h97v-97h-97zM524 396v97h97v-97h-97zM12 524v97h97v-97h-97zM268 524v97h97v-97h-97z
M524 524v97h97v-97h-97zM12 652v97h97v-97h-97zM140 652v97h97v-97h-97zM396 652v97h97v-97h-97zM524 652v97h97v-97h-97zM12 780v97h97v-97h-97zM524 780v97h97v-97h-97z" />
    <glyph glyph-name="N" unicode="N" 
d="M12 12v97h97v-97h-97zM524 12v97h97v-97h-97zM12 140v97h97v-97h-97zM524 140v97h97v-97h-97zM12 268v97h97v-97h-97zM396 268v97h97v-97h-97zM524 268v97h97v-97h-97zM12 396v97h97v-97h-97zM268 396v97h97v-97h-97zM524 396v97h97v-97h-97zM12 524v97h97v-97h-97z
M140 524v97h97v-97h-97zM524 524v97h97v-97h-97zM12 652v97h97v-97h-97zM524 652v97h97v-97h-97zM12 780v97h97v-97h-97zM524 780v97h97v-97h-97z" />
    <glyph glyph-name="O" unicode="O" 
d="M140 12v97h97v-97h-97zM268 12v97h97v-97h-97zM396 12v97h97v-97h-97zM12 140v97h97v-97h-97zM524 140v97h97v-97h-97zM12 268v97h97v-97h-97zM524 268v97h97v-97h-97zM12 396v97h97v-97h-97zM524 396v97h97v-97h-97zM12 524v97h97v-97h-97zM524 524v97h97v-97h-97z
M12 652v97h97v-97h-97zM524 652v97h97v-97h-97zM140 780v97h97v-97h-97zM268 780v97h97v-97h-97zM396 780v97h97v-97h-97z" />
    <glyph glyph-name="P" unicode="P" 
d="M12 12v97h97v-97h-97zM12 140v97h97v-97h-97zM12 268v97h97v-97h-97zM12 396v97h97v-97h-97zM140 396v97h97v-97h-97zM268 396v97h97v-97h-97zM396 396v97h97v-97h-97zM12 524v97h97v-97h-97zM524 524v97h97v-97h-97zM12 652v97h97v-97h-97zM524 652v97h97v-97h-97z
M12 780v97h97v-97h-97zM140 780v97h97v-97h-97zM268 780v97h97v-97h-97zM396 780v97h97v-97h-97z" />
    <glyph glyph-name="Q" unicode="Q" 
d="M140 12v97h97v-97h-97zM268 12v97h97v-97h-97zM524 12v97h97v-97h-97zM12 140v97h97v-97h-97zM396 140v97h97v-97h-97zM12 268v97h97v-97h-97zM268 268v97h97v-97h-97zM524 268v97h97v-97h-97zM12 396v97h97v-97h-97zM524 396v97h97v-97h-97zM12 524v97h97v-97h-97z
M524 524v97h97v-97h-97zM12 652v97h97v-97h-97zM524 652v97h97v-97h-97zM140 780v97h97v-97h-97zM268 780v97h97v-97h-97zM396 780v97h97v-97h-97z" />
    <glyph glyph-name="R" unicode="R" 
d="M12 12v97h97v-97h-97zM524 12v97h97v-97h-97zM12 140v97h97v-97h-97zM396 140v97h97v-97h-97zM12 268v97h97v-97h-97zM268 268v97h97v-97h-97zM12 396v97h97v-97h-97zM140 396v97h97v-97h-97zM268 396v97h97v-97h-97zM396 396v97h97v-97h-97zM12 524v97h97v-97h-97z
M524 524v97h97v-97h-97zM12 652v97h97v-97h-97zM524 652v97h97v-97h-97zM12 780v97h97v-97h-97zM140 780v97h97v-97h-97zM268 780v97h97v-97h-97zM396 780v97h97v-97h-97z" />
    <glyph glyph-name="S" unicode="S" 
d="M140 12v97h97v-97h-97zM268 12v97h97v-97h-97zM396 12v97h97v-97h-97zM12 140v97h97v-97h-97zM524 140v97h97v-97h-97zM524 268v97h97v-97h-97zM140 396v97h97v-97h-97zM268 396v97h97v-97h-97zM396 396v97h97v-97h-97zM12 524v97h97v-97h-97zM12 652v97h97v-97h-97z
M524 652v97h97v-97h-97zM140 780v97h97v-97h-97zM268 780v97h97v-97h-97zM396 780v97h97v-97h-97z" />
    <glyph glyph-name="T" unicode="T" 
d="M268 12v97h97v-97h-97zM268 140v97h97v-97h-97zM268 268v97h97v-97h-97zM268 396v97h97v-97h-97zM268 524v97h97v-97h-97zM268 652v97h97v-97h-97zM12 780v97h97v-97h-97zM140 780v97h97v-97h-97zM268 780v97h97v-97h-97zM396 780v97h97v-97h-97zM524 780v97h97v-97h-97z
" />
    <glyph glyph-name="U" unicode="U" 
d="M140 12v97h97v-97h-97zM268 12v97h97v-97h-97zM396 12v97h97v-97h-97zM12 140v97h97v-97h-97zM524 140v97h97v-97h-97zM12 268v97h97v-97h-97zM524 268v97h97v-97h-97zM12 396v97h97v-97h-97zM524 396v97h97v-97h-97zM12 524v97h97v-97h-97zM524 524v97h97v-97h-97z
M12 652v97h97v-97h-97zM524 652v97h97v-97h-97zM12 780v97h97v-97h-97zM524 780v97h97v-97h-97z" />
    <glyph glyph-name="V" unicode="V" 
d="M268 12v97h97v-97h-97zM140 140v97h97v-97h-97zM396 140v97h97v-97h-97zM12 268v97h97v-97h-97zM524 268v97h97v-97h-97zM12 396v97h97v-97h-97zM524 396v97h97v-97h-97zM12 524v97h97v-97h-97zM524 524v97h97v-97h-97zM12 652v97h97v-97h-97zM524 652v97h97v-97h-97z
M12 780v97h97v-97h-97zM524 780v97h97v-97h-97z" />
    <glyph glyph-name="W" unicode="W" 
d="M140 12v97h97v-97h-97zM396 12v97h97v-97h-97zM12 140v97h97v-97h-97zM268 140v97h97v-97h-97zM524 140v97h97v-97h-97zM12 268v97h97v-97h-97zM268 268v97h97v-97h-97zM524 268v97h97v-97h-97zM12 396v97h97v-97h-97zM268 396v97h97v-97h-97zM524 396v97h97v-97h-97z
M12 524v97h97v-97h-97zM524 524v97h97v-97h-97zM12 652v97h97v-97h-97zM524 652v97h97v-97h-97zM12 780v97h97v-97h-97zM524 780v97h97v-97h-97z" />
    <glyph glyph-name="X" unicode="X" 
d="M12 12v97h97v-97h-97zM524 12v97h97v-97h-97zM12 140v97h97v-97h-97zM524 140v97h97v-97h-97zM140 268v97h97v-97h-97zM396 268v97h97v-97h-97zM268 396v97h97v-97h-97zM140 524v97h97v-97h-97zM396 524v97h97v-97h-97zM12 652v97h97v-97h-97zM524 652v97h97v-97h-97z
M12 780v97h97v-97h-97zM524 780v97h97v-97h-97z" />
    <glyph glyph-name="Y" unicode="Y" 
d="M268 12v97h97v-97h-97zM268 140v97h97v-97h-97zM268 268v97h97v-97h-97zM140 396v97h97v-97h-97zM396 396v97h97v-97h-97zM12 524v97h97v-97h-97zM524 524v97h97v-97h-97zM12 652v97h97v-97h-97zM524 652v97h97v-97h-97zM12 780v97h97v-97h-97zM524 780v97h97v-97h-97z
" />
    <glyph glyph-name="Z" unicode="Z" 
d="M12 12v97h97v-97h-97zM140 12v97h97v-97h-97zM268 12v97h97v-97h-97zM396 12v97h97v-97h-97zM524 12v97h97v-97h-97zM12 140v97h97v-97h-97zM140 268v97h97v-97h-97zM268 396v97h97v-97h-97zM396 524v97h97v-97h-97zM524 652v97h97v-97h-97zM12 780v97h97v-97h-97z
M140 780v97h97v-97h-97zM268 780v97h97v-97h-97zM396 780v97h97v-97h-97zM524 780v97h97v-97h-97z" />
    <glyph glyph-name="bracketleft" unicode="[" horiz-adv-x="768" 
d="M140 12v97h97v-97h-97zM268 12v97h97v-97h-97zM396 12v97h97v-97h-97zM140 140v97h97v-97h-97zM140 268v97h97v-97h-97zM140 396v97h97v-97h-97zM140 524v97h97v-97h-97zM140 652v97h97v-97h-97zM140 780v97h97v-97h-97zM268 780v97h97v-97h-97zM396 780v97h97v-97h-97z
" />
    <glyph glyph-name="backslash" unicode="\" 
d="M524 140v97h97v-97h-97zM396 268v97h97v-97h-97zM268 396v97h97v-97h-97zM140 524v97h97v-97h-97zM12 652v97h97v-97h-97z" />
    <glyph glyph-name="bracketright" unicode="]" horiz-adv-x="768" 
d="M140 12v97h97v-97h-97zM268 12v97h97v-97h-97zM396 12v97h97v-97h-97zM396 140v97h97v-97h-97zM396 268v97h97v-97h-97zM396 396v97h97v-97h-97zM396 524v97h97v-97h-97zM396 652v97h97v-97h-97zM140 780v97h97v-97h-97zM268 780v97h97v-97h-97zM396 780v97h97v-97h-97z
" />
    <glyph glyph-name="asciicircum" unicode="^" 
d="M12 524v97h97v-97h-97zM524 524v97h97v-97h-97zM140 652v97h97v-97h-97zM396 652v97h97v-97h-97zM268 780v97h97v-97h-97z" />
    <glyph glyph-name="underscore" unicode="_" 
d="M12 12v97h97v-97h-97zM140 12v97h97v-97h-97zM268 12v97h97v-97h-97zM396 12v97h97v-97h-97zM524 12v97h97v-97h-97z" />
    <glyph glyph-name="grave" unicode="`" horiz-adv-x="768" 
d="M396 524v97h97v-97h-97zM268 652v97h97v-97h-97zM140 780v97h97v-97h-97z" />
    <glyph glyph-name="a" unicode="a" 
d="M140 12v97h97v-97h-97zM268 12v97h97v-97h-97zM396 12v97h97v-97h-97zM524 12v97h97v-97h-97zM12 140v97h97v-97h-97zM524 140v97h97v-97h-97zM140 268v97h97v-97h-97zM268 268v97h97v-97h-97zM396 268v97h97v-97h-97zM524 268v97h97v-97h-97zM524 396v97h97v-97h-97z
M140 524v97h97v-97h-97zM268 524v97h97v-97h-97zM396 524v97h97v-97h-97z" />
    <glyph glyph-name="b" unicode="b" 
d="M12 12v97h97v-97h-97zM140 12v97h97v-97h-97zM268 12v97h97v-97h-97zM396 12v97h97v-97h-97zM12 140v97h97v-97h-97zM524 140v97h97v-97h-97zM12 268v97h97v-97h-97zM524 268v97h97v-97h-97zM12 396v97h97v-97h-97zM140 396v97h97v-97h-97zM524 396v97h97v-97h-97z
M12 524v97h97v-97h-97zM268 524v97h97v-97h-97zM396 524v97h97v-97h-97zM12 652v97h97v-97h-97zM12 780v97h97v-97h-97z" />
    <glyph glyph-name="c" unicode="c" 
d="M140 12v97h97v-97h-97zM268 12v97h97v-97h-97zM396 12v97h97v-97h-97zM12 140v97h97v-97h-97zM524 140v97h97v-97h-97zM12 268v97h97v-97h-97zM12 396v97h97v-97h-97zM140 524v97h97v-97h-97zM268 524v97h97v-97h-97zM396 524v97h97v-97h-97z" />
    <glyph glyph-name="d" unicode="d" 
d="M140 12v97h97v-97h-97zM268 12v97h97v-97h-97zM396 12v97h97v-97h-97zM524 12v97h97v-97h-97zM12 140v97h97v-97h-97zM524 140v97h97v-97h-97zM12 268v97h97v-97h-97zM524 268v97h97v-97h-97zM12 396v97h97v-97h-97zM396 396v97h97v-97h-97zM524 396v97h97v-97h-97z
M140 524v97h97v-97h-97zM268 524v97h97v-97h-97zM524 524v97h97v-97h-97zM524 652v97h97v-97h-97zM524 780v97h97v-97h-97z" />
    <glyph glyph-name="e" unicode="e" 
d="M140 12v97h97v-97h-97zM268 12v97h97v-97h-97zM396 12v97h97v-97h-97zM12 140v97h97v-97h-97zM12 268v97h97v-97h-97zM140 268v97h97v-97h-97zM268 268v97h97v-97h-97zM396 268v97h97v-97h-97zM524 268v97h97v-97h-97zM12 396v97h97v-97h-97zM524 396v97h97v-97h-97z
M140 524v97h97v-97h-97zM268 524v97h97v-97h-97zM396 524v97h97v-97h-97z" />
    <glyph glyph-name="f" unicode="f" 
d="M140 12v97h97v-97h-97zM140 140v97h97v-97h-97zM140 268v97h97v-97h-97zM12 396v97h97v-97h-97zM140 396v97h97v-97h-97zM268 396v97h97v-97h-97zM140 524v97h97v-97h-97zM140 652v97h97v-97h-97zM524 652v97h97v-97h-97zM268 780v97h97v-97h-97zM396 780v97h97v-97h-97z
" />
    <glyph glyph-name="g" unicode="g" 
d="M140 12v97h97v-97h-97zM268 12v97h97v-97h-97zM396 12v97h97v-97h-97zM524 140v97h97v-97h-97zM140 268v97h97v-97h-97zM268 268v97h97v-97h-97zM396 268v97h97v-97h-97zM524 268v97h97v-97h-97zM12 396v97h97v-97h-97zM524 396v97h97v-97h-97zM140 524v97h97v-97h-97z
M268 524v97h97v-97h-97zM396 524v97h97v-97h-97zM524 524v97h97v-97h-97z" />
    <glyph glyph-name="h" unicode="h" 
d="M12 12v97h97v-97h-97zM524 12v97h97v-97h-97zM12 140v97h97v-97h-97zM524 140v97h97v-97h-97zM12 268v97h97v-97h-97zM524 268v97h97v-97h-97zM12 396v97h97v-97h-97zM140 396v97h97v-97h-97zM524 396v97h97v-97h-97zM12 524v97h97v-97h-97zM268 524v97h97v-97h-97z
M396 524v97h97v-97h-97zM12 652v97h97v-97h-97zM12 780v97h97v-97h-97z" />
    <glyph glyph-name="i" unicode="i" horiz-adv-x="768" 
d="M140 12v97h97v-97h-97zM268 12v97h97v-97h-97zM396 12v97h97v-97h-97zM268 140v97h97v-97h-97zM268 268v97h97v-97h-97zM140 396v97h97v-97h-97zM268 396v97h97v-97h-97zM268 524v97h97v-97h-97zM268 780v97h97v-97h-97z" />
    <glyph glyph-name="j" unicode="j" 
d="M140 12v97h97v-97h-97zM268 12v97h97v-97h-97zM12 140v97h97v-97h-97zM396 140v97h97v-97h-97zM396 268v97h97v-97h-97zM396 396v97h97v-97h-97zM268 524v97h97v-97h-97zM396 524v97h97v-97h-97zM396 780v97h97v-97h-97z" />
    <glyph glyph-name="k" unicode="k" 
d="M12 12v97h97v-97h-97zM396 12v97h97v-97h-97zM12 140v97h97v-97h-97zM268 140v97h97v-97h-97zM12 268v97h97v-97h-97zM140 268v97h97v-97h-97zM12 396v97h97v-97h-97zM268 396v97h97v-97h-97zM12 524v97h97v-97h-97zM396 524v97h97v-97h-97zM12 652v97h97v-97h-97z
M12 780v97h97v-97h-97z" />
    <glyph glyph-name="l" unicode="l" horiz-adv-x="768" 
d="M140 12v97h97v-97h-97zM268 12v97h97v-97h-97zM396 12v97h97v-97h-97zM268 140v97h97v-97h-97zM268 268v97h97v-97h-97zM268 396v97h97v-97h-97zM268 524v97h97v-97h-97zM268 652v97h97v-97h-97zM140 780v97h97v-97h-97zM268 780v97h97v-97h-97z" />
    <glyph glyph-name="m" unicode="m" 
d="M12 12v97h97v-97h-97zM268 12v97h97v-97h-97zM524 12v97h97v-97h-97zM12 140v97h97v-97h-97zM268 140v97h97v-97h-97zM524 140v97h97v-97h-97zM12 268v97h97v-97h-97zM268 268v97h97v-97h-97zM524 268v97h97v-97h-97zM12 396v97h97v-97h-97zM268 396v97h97v-97h-97z
M524 396v97h97v-97h-97zM12 524v97h97v-97h-97zM140 524v97h97v-97h-97zM396 524v97h97v-97h-97z" />
    <glyph glyph-name="n" unicode="n" 
d="M12 12v97h97v-97h-97zM524 12v97h97v-97h-97zM12 140v97h97v-97h-97zM524 140v97h97v-97h-97zM12 268v97h97v-97h-97zM524 268v97h97v-97h-97zM12 396v97h97v-97h-97zM140 396v97h97v-97h-97zM524 396v97h97v-97h-97zM12 524v97h97v-97h-97zM268 524v97h97v-97h-97z
M396 524v97h97v-97h-97z" />
    <glyph glyph-name="o" unicode="o" 
d="M140 12v97h97v-97h-97zM268 12v97h97v-97h-97zM396 12v97h97v-97h-97zM12 140v97h97v-97h-97zM524 140v97h97v-97h-97zM12 268v97h97v-97h-97zM524 268v97h97v-97h-97zM12 396v97h97v-97h-97zM524 396v97h97v-97h-97zM140 524v97h97v-97h-97zM268 524v97h97v-97h-97z
M396 524v97h97v-97h-97z" />
    <glyph glyph-name="p" unicode="p" 
d="M12 12v97h97v-97h-97zM12 140v97h97v-97h-97zM12 268v97h97v-97h-97zM140 268v97h97v-97h-97zM268 268v97h97v-97h-97zM396 268v97h97v-97h-97zM12 396v97h97v-97h-97zM524 396v97h97v-97h-97zM12 524v97h97v-97h-97zM140 524v97h97v-97h-97zM268 524v97h97v-97h-97z
M396 524v97h97v-97h-97z" />
    <glyph glyph-name="q" unicode="q" 
d="M524 12v97h97v-97h-97zM524 140v97h97v-97h-97zM140 268v97h97v-97h-97zM268 268v97h97v-97h-97zM396 268v97h97v-97h-97zM524 268v97h97v-97h-97zM12 396v97h97v-97h-97zM396 396v97h97v-97h-97zM524 396v97h97v-97h-97zM140 524v97h97v-97h-97zM268 524v97h97v-97h-97z
M524 524v97h97v-97h-97z" />
    <glyph glyph-name="r" unicode="r" 
d="M560 -79v24h24v-24h-24zM12 12v97h97v-97h-97zM12 140v97h97v-97h-97zM12 268v97h97v-97h-97zM12 396v97h97v-97h-97zM140 396v97h97v-97h-97zM524 396v97h97v-97h-97zM12 524v97h97v-97h-97zM268 524v97h97v-97h-97zM396 524v97h97v-97h-97z" />
    <glyph glyph-name="s" unicode="s" 
d="M12 12v97h97v-97h-97zM140 12v97h97v-97h-97zM268 12v97h97v-97h-97zM396 12v97h97v-97h-97zM524 140v97h97v-97h-97zM140 268v97h97v-97h-97zM268 268v97h97v-97h-97zM396 268v97h97v-97h-97zM12 396v97h97v-97h-97zM140 524v97h97v-97h-97zM268 524v97h97v-97h-97z
M396 524v97h97v-97h-97z" />
    <glyph glyph-name="t" unicode="t" 
d="M268 12v97h97v-97h-97zM396 12v97h97v-97h-97zM140 140v97h97v-97h-97zM524 140v97h97v-97h-97zM140 268v97h97v-97h-97zM140 396v97h97v-97h-97zM12 524v97h97v-97h-97zM140 524v97h97v-97h-97zM268 524v97h97v-97h-97zM140 652v97h97v-97h-97zM140 780v97h97v-97h-97z
" />
    <glyph glyph-name="u" unicode="u" 
d="M140 12v97h97v-97h-97zM268 12v97h97v-97h-97zM524 12v97h97v-97h-97zM12 140v97h97v-97h-97zM396 140v97h97v-97h-97zM524 140v97h97v-97h-97zM12 268v97h97v-97h-97zM524 268v97h97v-97h-97zM12 396v97h97v-97h-97zM524 396v97h97v-97h-97zM12 524v97h97v-97h-97z
M524 524v97h97v-97h-97z" />
    <glyph glyph-name="v" unicode="v" 
d="M268 12v97h97v-97h-97zM140 140v97h97v-97h-97zM396 140v97h97v-97h-97zM12 268v97h97v-97h-97zM524 268v97h97v-97h-97zM12 396v97h97v-97h-97zM524 396v97h97v-97h-97zM12 524v97h97v-97h-97zM524 524v97h97v-97h-97z" />
    <glyph glyph-name="w" unicode="w" 
d="M140 12v97h97v-97h-97zM396 12v97h97v-97h-97zM12 140v97h97v-97h-97zM268 140v97h97v-97h-97zM524 140v97h97v-97h-97zM12 268v97h97v-97h-97zM268 268v97h97v-97h-97zM524 268v97h97v-97h-97zM12 396v97h97v-97h-97zM524 396v97h97v-97h-97zM12 524v97h97v-97h-97z
M524 524v97h97v-97h-97z" />
    <glyph glyph-name="x" unicode="x" 
d="M12 12v97h97v-97h-97zM524 12v97h97v-97h-97zM140 140v97h97v-97h-97zM396 140v97h97v-97h-97zM268 268v97h97v-97h-97zM140 396v97h97v-97h-97zM396 396v97h97v-97h-97zM12 524v97h97v-97h-97zM524 524v97h97v-97h-97z" />
    <glyph glyph-name="y" unicode="y" 
d="M140 12v97h97v-97h-97zM268 12v97h97v-97h-97zM396 12v97h97v-97h-97zM524 140v97h97v-97h-97zM140 268v97h97v-97h-97zM268 268v97h97v-97h-97zM396 268v97h97v-97h-97zM524 268v97h97v-97h-97zM12 396v97h97v-97h-97zM524 396v97h97v-97h-97zM12 524v97h97v-97h-97z
M524 524v97h97v-97h-97z" />
    <glyph glyph-name="z" unicode="z" 
d="M12 12v97h97v-97h-97zM140 12v97h97v-97h-97zM268 12v97h97v-97h-97zM396 12v97h97v-97h-97zM524 12v97h97v-97h-97zM140 140v97h97v-97h-97zM268 268v97h97v-97h-97zM396 396v97h97v-97h-97zM12 524v97h97v-97h-97zM140 524v97h97v-97h-97zM268 524v97h97v-97h-97z
M396 524v97h97v-97h-97zM524 524v97h97v-97h-97z" />
    <glyph glyph-name="braceleft" unicode="{" horiz-adv-x="768" 
d="M396 12v97h97v-97h-97zM268 140v97h97v-97h-97zM268 268v97h97v-97h-97zM140 396v97h97v-97h-97zM268 524v97h97v-97h-97zM268 652v97h97v-97h-97zM396 780v97h97v-97h-97z" />
    <glyph glyph-name="bar" unicode="|" horiz-adv-x="768" 
d="M268 12v97h97v-97h-97zM268 140v97h97v-97h-97zM268 268v97h97v-97h-97zM268 396v97h97v-97h-97zM268 524v97h97v-97h-97zM268 652v97h97v-97h-97zM268 780v97h97v-97h-97z" />
    <glyph glyph-name="braceright" unicode="}" horiz-adv-x="768" 
d="M140 12v97h97v-97h-97zM268 140v97h97v-97h-97zM268 268v97h97v-97h-97zM396 396v97h97v-97h-97zM268 524v97h97v-97h-97zM268 652v97h97v-97h-97zM140 780v97h97v-97h-97z" />
    <glyph glyph-name="asciitilde" unicode="~" 
d="M12 268v97h97v-97h-97zM396 268v97h97v-97h-97zM140 396v97h97v-97h-97zM268 396v97h97v-97h-97zM524 396v97h97v-97h-97z" />
    <glyph glyph-name="uni00A0" unicode="&#xa0;" horiz-adv-x="768" 
 />
    <glyph glyph-name="exclamdown" unicode="&#xa1;" horiz-adv-x="768" 
d="M268 12v97h97v-97h-97zM268 140v97h97v-97h-97zM268 268v97h97v-97h-97zM268 396v97h97v-97h-97zM268 524v97h97v-97h-97zM268 780v97h97v-97h-97z" />
    <glyph glyph-name="cent" unicode="&#xa2;" 
d="M268 12v97h97v-97h-97zM140 140v97h97v-97h-97zM268 140v97h97v-97h-97zM396 140v97h97v-97h-97zM12 268v97h97v-97h-97zM268 268v97h97v-97h-97zM524 268v97h97v-97h-97zM12 396v97h97v-97h-97zM268 396v97h97v-97h-97zM12 524v97h97v-97h-97zM268 524v97h97v-97h-97z
M140 652v97h97v-97h-97zM268 652v97h97v-97h-97zM396 652v97h97v-97h-97zM268 780v97h97v-97h-97z" />
    <glyph glyph-name="sterling" unicode="&#xa3;" 
d="M12 12v97h97v-97h-97zM268 12v97h97v-97h-97zM396 12v97h97v-97h-97zM140 140v97h97v-97h-97zM524 140v97h97v-97h-97zM140 268v97h97v-97h-97zM12 396v97h97v-97h-97zM140 396v97h97v-97h-97zM268 396v97h97v-97h-97zM396 396v97h97v-97h-97zM140 524v97h97v-97h-97z
M140 652v97h97v-97h-97zM268 780v97h97v-97h-97zM396 780v97h97v-97h-97z" />
    <glyph glyph-name="currency" unicode="&#xa4;" 
d="M12 140v97h97v-97h-97zM524 140v97h97v-97h-97zM140 268v97h97v-97h-97zM268 268v97h97v-97h-97zM396 268v97h97v-97h-97zM140 396v97h97v-97h-97zM396 396v97h97v-97h-97zM140 524v97h97v-97h-97zM268 524v97h97v-97h-97zM396 524v97h97v-97h-97zM12 652v97h97v-97h-97z
M524 652v97h97v-97h-97z" />
    <glyph glyph-name="yen" unicode="&#xa5;" 
d="M268 12v97h97v-97h-97zM268 140v97h97v-97h-97zM12 268v97h97v-97h-97zM140 268v97h97v-97h-97zM268 268v97h97v-97h-97zM396 268v97h97v-97h-97zM524 268v97h97v-97h-97zM268 396v97h97v-97h-97zM12 524v97h97v-97h-97zM140 524v97h97v-97h-97zM268 524v97h97v-97h-97z
M396 524v97h97v-97h-97zM524 524v97h97v-97h-97zM140 652v97h97v-97h-97zM396 652v97h97v-97h-97zM12 780v97h97v-97h-97zM524 780v97h97v-97h-97z" />
    <glyph glyph-name="brokenbar" unicode="&#xa6;" horiz-adv-x="768" 
d="M268 12v97h97v-97h-97zM268 140v97h97v-97h-97zM268 268v97h97v-97h-97zM268 524v97h97v-97h-97zM268 652v97h97v-97h-97zM268 780v97h97v-97h-97z" />
    <glyph glyph-name="section" unicode="&#xa7;" 
d="M140 12v97h97v-97h-97zM268 12v97h97v-97h-97zM12 140v97h97v-97h-97zM396 140v97h97v-97h-97zM268 268v97h97v-97h-97zM140 396v97h97v-97h-97zM396 396v97h97v-97h-97zM268 524v97h97v-97h-97zM140 652v97h97v-97h-97zM524 652v97h97v-97h-97zM268 780v97h97v-97h-97z
M396 780v97h97v-97h-97z" />
    <glyph glyph-name="dieresis" unicode="&#xa8;" horiz-adv-x="768" 
d="M140 780v97h97v-97h-97zM396 780v97h97v-97h-97z" />
    <glyph glyph-name="copyright" unicode="&#xa9;" 
d="M12 12v97h97v-97h-97zM140 12v97h97v-97h-97zM268 12v97h97v-97h-97zM396 12v97h97v-97h-97zM524 12v97h97v-97h-97zM12 140v97h97v-97h-97zM524 140v97h97v-97h-97zM12 268v97h97v-97h-97zM268 268v97h97v-97h-97zM524 268v97h97v-97h-97zM12 396v97h97v-97h-97z
M268 396v97h97v-97h-97zM396 396v97h97v-97h-97zM524 396v97h97v-97h-97zM12 524v97h97v-97h-97zM268 524v97h97v-97h-97zM524 524v97h97v-97h-97zM12 652v97h97v-97h-97zM524 652v97h97v-97h-97zM12 780v97h97v-97h-97zM140 780v97h97v-97h-97zM268 780v97h97v-97h-97z
M396 780v97h97v-97h-97zM524 780v97h97v-97h-97z" />
    <glyph glyph-name="ordfeminine" unicode="&#xaa;" 
d="M12 12v97h97v-97h-97zM140 12v97h97v-97h-97zM268 12v97h97v-97h-97zM396 12v97h97v-97h-97zM524 12v97h97v-97h-97zM140 268v97h97v-97h-97zM268 268v97h97v-97h-97zM396 268v97h97v-97h-97zM524 268v97h97v-97h-97zM12 396v97h97v-97h-97zM524 396v97h97v-97h-97z
M140 524v97h97v-97h-97zM268 524v97h97v-97h-97zM396 524v97h97v-97h-97zM524 524v97h97v-97h-97zM524 652v97h97v-97h-97zM140 780v97h97v-97h-97zM268 780v97h97v-97h-97zM396 780v97h97v-97h-97z" />
    <glyph glyph-name="guillemotleft" unicode="&#xab;" 
d="M268 12v97h97v-97h-97zM524 12v97h97v-97h-97zM140 140v97h97v-97h-97zM396 140v97h97v-97h-97zM12 268v97h97v-97h-97zM268 268v97h97v-97h-97zM140 396v97h97v-97h-97zM396 396v97h97v-97h-97zM268 524v97h97v-97h-97zM524 524v97h97v-97h-97z" />
    <glyph glyph-name="logicalnot" unicode="&#xac;" 
d="M524 12v97h97v-97h-97zM524 140v97h97v-97h-97zM12 268v97h97v-97h-97zM140 268v97h97v-97h-97zM268 268v97h97v-97h-97zM396 268v97h97v-97h-97zM524 268v97h97v-97h-97z" />
    <glyph glyph-name="uni00AD" unicode="&#xad;" 
d="M12 268v97h97v-97h-97zM140 268v97h97v-97h-97zM268 268v97h97v-97h-97zM396 268v97h97v-97h-97zM524 268v97h97v-97h-97z" />
    <glyph glyph-name="registered" unicode="&#xae;" 
d="M12 12v97h97v-97h-97zM140 12v97h97v-97h-97zM268 12v97h97v-97h-97zM396 12v97h97v-97h-97zM524 12v97h97v-97h-97zM12 140v97h97v-97h-97zM268 140v97h97v-97h-97zM524 140v97h97v-97h-97zM12 268v97h97v-97h-97zM396 268v97h97v-97h-97zM524 268v97h97v-97h-97z
M12 396v97h97v-97h-97zM524 396v97h97v-97h-97zM12 524v97h97v-97h-97zM268 524v97h97v-97h-97zM524 524v97h97v-97h-97zM12 652v97h97v-97h-97zM524 652v97h97v-97h-97zM12 780v97h97v-97h-97zM140 780v97h97v-97h-97zM268 780v97h97v-97h-97zM396 780v97h97v-97h-97z
M524 780v97h97v-97h-97z" />
    <glyph glyph-name="macron" unicode="&#xaf;" 
d="M12 780v97h97v-97h-97zM140 780v97h97v-97h-97zM268 780v97h97v-97h-97zM396 780v97h97v-97h-97zM524 780v97h97v-97h-97z" />
    <glyph glyph-name="degree" unicode="&#xb0;" 
d="M140 396v97h97v-97h-97zM268 396v97h97v-97h-97zM12 524v97h97v-97h-97zM396 524v97h97v-97h-97zM12 652v97h97v-97h-97zM396 652v97h97v-97h-97zM12 780v97h97v-97h-97zM396 780v97h97v-97h-97zM140 908v97h97v-97h-97zM268 908v97h97v-97h-97z" />
    <glyph glyph-name="plusminus" unicode="&#xb1;" 
d="M12 12v97h97v-97h-97zM140 12v97h97v-97h-97zM268 12v97h97v-97h-97zM396 12v97h97v-97h-97zM524 12v97h97v-97h-97zM268 268v97h97v-97h-97zM268 396v97h97v-97h-97zM12 524v97h97v-97h-97zM140 524v97h97v-97h-97zM268 524v97h97v-97h-97zM396 524v97h97v-97h-97z
M524 524v97h97v-97h-97zM268 652v97h97v-97h-97zM268 780v97h97v-97h-97z" />
    <glyph glyph-name="uni00B2" unicode="&#xb2;" 
d="M12 396v97h97v-97h-97zM140 396v97h97v-97h-97zM268 396v97h97v-97h-97zM396 396v97h97v-97h-97zM140 524v97h97v-97h-97zM268 652v97h97v-97h-97zM12 780v97h97v-97h-97zM396 780v97h97v-97h-97zM140 908v97h97v-97h-97zM268 908v97h97v-97h-97z" />
    <glyph glyph-name="uni00B3" unicode="&#xb3;" 
d="M12 396v97h97v-97h-97zM140 396v97h97v-97h-97zM268 396v97h97v-97h-97zM396 524v97h97v-97h-97zM140 652v97h97v-97h-97zM268 652v97h97v-97h-97zM396 780v97h97v-97h-97zM12 908v97h97v-97h-97zM140 908v97h97v-97h-97zM268 908v97h97v-97h-97z" />
    <glyph glyph-name="acute" unicode="&#xb4;" horiz-adv-x="768" 
d="M140 524v97h97v-97h-97zM268 652v97h97v-97h-97zM396 780v97h97v-97h-97z" />
    <glyph glyph-name="uni00B5" unicode="&#xb5;" 
d="M12 12v97h97v-97h-97zM12 140v97h97v-97h-97zM12 268v97h97v-97h-97zM140 268v97h97v-97h-97zM268 268v97h97v-97h-97zM524 268v97h97v-97h-97zM12 396v97h97v-97h-97zM396 396v97h97v-97h-97zM524 396v97h97v-97h-97zM12 524v97h97v-97h-97zM524 524v97h97v-97h-97z
M12 652v97h97v-97h-97zM524 652v97h97v-97h-97zM12 780v97h97v-97h-97zM524 780v97h97v-97h-97z" />
    <glyph glyph-name="paragraph" unicode="&#xb6;" 
d="M396 12v97h97v-97h-97zM524 12v97h97v-97h-97zM396 140v97h97v-97h-97zM524 140v97h97v-97h-97zM396 268v97h97v-97h-97zM524 268v97h97v-97h-97zM140 396v97h97v-97h-97zM268 396v97h97v-97h-97zM396 396v97h97v-97h-97zM524 396v97h97v-97h-97zM12 524v97h97v-97h-97z
M396 524v97h97v-97h-97zM524 524v97h97v-97h-97zM12 652v97h97v-97h-97zM396 652v97h97v-97h-97zM524 652v97h97v-97h-97zM140 780v97h97v-97h-97zM268 780v97h97v-97h-97zM396 780v97h97v-97h-97zM524 780v97h97v-97h-97z" />
    <glyph glyph-name="periodcentered" unicode="&#xb7;" horiz-adv-x="768" 
d="M140 268v97h97v-97h-97zM268 268v97h97v-97h-97zM140 396v97h97v-97h-97zM268 396v97h97v-97h-97z" />
    <glyph glyph-name="cedilla" unicode="&#xb8;" horiz-adv-x="768" 
d="M140 12v97h97v-97h-97zM268 12v97h97v-97h-97zM396 140v97h97v-97h-97zM268 268v97h97v-97h-97zM268 396v97h97v-97h-97z" />
    <glyph glyph-name="uni00B9" unicode="&#xb9;" 
d="M12 396v97h97v-97h-97zM140 396v97h97v-97h-97zM268 396v97h97v-97h-97zM140 524v97h97v-97h-97zM140 652v97h97v-97h-97zM12 780v97h97v-97h-97zM140 780v97h97v-97h-97zM140 908v97h97v-97h-97z" />
    <glyph glyph-name="ordmasculine" unicode="&#xba;" 
d="M12 12v97h97v-97h-97zM140 12v97h97v-97h-97zM268 12v97h97v-97h-97zM396 12v97h97v-97h-97zM524 12v97h97v-97h-97zM140 268v97h97v-97h-97zM268 268v97h97v-97h-97zM396 268v97h97v-97h-97zM12 396v97h97v-97h-97zM524 396v97h97v-97h-97zM12 524v97h97v-97h-97z
M524 524v97h97v-97h-97zM12 652v97h97v-97h-97zM524 652v97h97v-97h-97zM140 780v97h97v-97h-97zM268 780v97h97v-97h-97zM396 780v97h97v-97h-97z" />
    <glyph glyph-name="guillemotright" unicode="&#xbb;" 
d="M12 12v97h97v-97h-97zM268 12v97h97v-97h-97zM140 140v97h97v-97h-97zM396 140v97h97v-97h-97zM268 268v97h97v-97h-97zM524 268v97h97v-97h-97zM140 396v97h97v-97h-97zM396 396v97h97v-97h-97zM12 524v97h97v-97h-97zM268 524v97h97v-97h-97z" />
    <glyph glyph-name="onequarter" unicode="&#xbc;" 
d="M396 12v97h97v-97h-97zM140 140v97h97v-97h-97zM268 140v97h97v-97h-97zM396 140v97h97v-97h-97zM524 140v97h97v-97h-97zM140 268v97h97v-97h-97zM396 268v97h97v-97h-97zM12 396v97h97v-97h-97zM268 396v97h97v-97h-97zM396 396v97h97v-97h-97zM140 524v97h97v-97h-97z
M396 524v97h97v-97h-97zM12 652v97h97v-97h-97zM268 652v97h97v-97h-97zM12 780v97h97v-97h-97zM396 780v97h97v-97h-97zM12 908v97h97v-97h-97zM524 908v97h97v-97h-97z" />
    <glyph glyph-name="onehalf" unicode="&#xbd;" 
d="M268 12v97h97v-97h-97zM396 12v97h97v-97h-97zM524 12v97h97v-97h-97zM396 140v97h97v-97h-97zM524 268v97h97v-97h-97zM12 396v97h97v-97h-97zM268 396v97h97v-97h-97zM524 396v97h97v-97h-97zM140 524v97h97v-97h-97zM396 524v97h97v-97h-97zM12 652v97h97v-97h-97z
M268 652v97h97v-97h-97zM12 780v97h97v-97h-97zM396 780v97h97v-97h-97zM12 908v97h97v-97h-97zM524 908v97h97v-97h-97z" />
    <glyph glyph-name="threequarters" unicode="&#xbe;" 
d="M524 12v97h97v-97h-97zM268 140v97h97v-97h-97zM396 140v97h97v-97h-97zM524 140v97h97v-97h-97zM268 268v97h97v-97h-97zM524 268v97h97v-97h-97zM12 396v97h97v-97h-97zM140 396v97h97v-97h-97zM396 396v97h97v-97h-97zM524 396v97h97v-97h-97zM140 524v97h97v-97h-97z
M524 524v97h97v-97h-97zM12 652v97h97v-97h-97zM140 652v97h97v-97h-97zM140 780v97h97v-97h-97zM12 908v97h97v-97h-97zM140 908v97h97v-97h-97z" />
    <glyph glyph-name="questiondown" unicode="&#xbf;" 
d="M140 12v97h97v-97h-97zM268 12v97h97v-97h-97zM396 12v97h97v-97h-97zM12 140v97h97v-97h-97zM524 140v97h97v-97h-97zM12 268v97h97v-97h-97zM140 396v97h97v-97h-97zM268 524v97h97v-97h-97zM268 780v97h97v-97h-97z" />
    <glyph glyph-name="Agrave" unicode="&#xc0;" 
d="M12 12v97h97v-97h-97zM524 12v97h97v-97h-97zM12 140v97h97v-97h-97zM524 140v97h97v-97h-97zM12 268v97h97v-97h-97zM140 268v97h97v-97h-97zM268 268v97h97v-97h-97zM396 268v97h97v-97h-97zM524 268v97h97v-97h-97zM12 396v97h97v-97h-97zM524 396v97h97v-97h-97z
M140 524v97h97v-97h-97zM268 524v97h97v-97h-97zM396 524v97h97v-97h-97zM268 652v97h97v-97h-97zM268 780v97h97v-97h-97zM140 908v97h97v-97h-97z" />
    <glyph glyph-name="Aacute" unicode="&#xc1;" 
d="M12 12v97h97v-97h-97zM524 12v97h97v-97h-97zM12 140v97h97v-97h-97zM524 140v97h97v-97h-97zM12 268v97h97v-97h-97zM140 268v97h97v-97h-97zM268 268v97h97v-97h-97zM396 268v97h97v-97h-97zM524 268v97h97v-97h-97zM12 396v97h97v-97h-97zM524 396v97h97v-97h-97z
M140 524v97h97v-97h-97zM268 524v97h97v-97h-97zM396 524v97h97v-97h-97zM268 652v97h97v-97h-97zM268 780v97h97v-97h-97zM396 908v97h97v-97h-97z" />
    <glyph glyph-name="Acircumflex" unicode="&#xc2;" 
d="M12 12v97h97v-97h-97zM524 12v97h97v-97h-97zM12 140v97h97v-97h-97zM524 140v97h97v-97h-97zM12 268v97h97v-97h-97zM140 268v97h97v-97h-97zM268 268v97h97v-97h-97zM396 268v97h97v-97h-97zM524 268v97h97v-97h-97zM12 396v97h97v-97h-97zM524 396v97h97v-97h-97z
M140 524v97h97v-97h-97zM268 524v97h97v-97h-97zM396 524v97h97v-97h-97zM140 780v97h97v-97h-97zM396 780v97h97v-97h-97zM268 908v97h97v-97h-97z" />
    <glyph glyph-name="Atilde" unicode="&#xc3;" 
d="M12 12v97h97v-97h-97zM524 12v97h97v-97h-97zM12 140v97h97v-97h-97zM524 140v97h97v-97h-97zM12 268v97h97v-97h-97zM140 268v97h97v-97h-97zM268 268v97h97v-97h-97zM396 268v97h97v-97h-97zM524 268v97h97v-97h-97zM12 396v97h97v-97h-97zM524 396v97h97v-97h-97z
M140 524v97h97v-97h-97zM268 524v97h97v-97h-97zM396 524v97h97v-97h-97zM12 780v97h97v-97h-97zM396 780v97h97v-97h-97zM140 908v97h97v-97h-97zM268 908v97h97v-97h-97zM524 908v97h97v-97h-97z" />
    <glyph glyph-name="Adieresis" unicode="&#xc4;" 
d="M12 12v97h97v-97h-97zM524 12v97h97v-97h-97zM12 140v97h97v-97h-97zM524 140v97h97v-97h-97zM12 268v97h97v-97h-97zM140 268v97h97v-97h-97zM268 268v97h97v-97h-97zM396 268v97h97v-97h-97zM524 268v97h97v-97h-97zM12 396v97h97v-97h-97zM524 396v97h97v-97h-97z
M140 524v97h97v-97h-97zM268 524v97h97v-97h-97zM396 524v97h97v-97h-97zM268 652v97h97v-97h-97zM140 908v97h97v-97h-97zM396 908v97h97v-97h-97z" />
    <glyph glyph-name="Aring" unicode="&#xc5;" 
d="M12 12v97h97v-97h-97zM524 12v97h97v-97h-97zM12 140v97h97v-97h-97zM524 140v97h97v-97h-97zM12 268v97h97v-97h-97zM140 268v97h97v-97h-97zM268 268v97h97v-97h-97zM396 268v97h97v-97h-97zM524 268v97h97v-97h-97zM12 396v97h97v-97h-97zM524 396v97h97v-97h-97z
M140 524v97h97v-97h-97zM268 524v97h97v-97h-97zM396 524v97h97v-97h-97zM268 652v97h97v-97h-97zM140 780v97h97v-97h-97zM396 780v97h97v-97h-97zM268 908v97h97v-97h-97z" />
    <glyph glyph-name="AE" unicode="&#xc6;" 
d="M12 12v97h97v-97h-97zM268 12v97h97v-97h-97zM396 12v97h97v-97h-97zM524 12v97h97v-97h-97zM12 140v97h97v-97h-97zM268 140v97h97v-97h-97zM12 268v97h97v-97h-97zM268 268v97h97v-97h-97zM12 396v97h97v-97h-97zM140 396v97h97v-97h-97zM268 396v97h97v-97h-97z
M396 396v97h97v-97h-97zM12 524v97h97v-97h-97zM268 524v97h97v-97h-97zM140 652v97h97v-97h-97zM268 652v97h97v-97h-97zM268 780v97h97v-97h-97zM396 780v97h97v-97h-97zM524 780v97h97v-97h-97z" />
    <glyph glyph-name="Ccedilla" unicode="&#xc7;" 
d="M268 12v97h97v-97h-97zM396 12v97h97v-97h-97zM396 140v97h97v-97h-97zM140 268v97h97v-97h-97zM268 268v97h97v-97h-97zM396 268v97h97v-97h-97zM12 396v97h97v-97h-97zM524 396v97h97v-97h-97zM12 524v97h97v-97h-97zM12 652v97h97v-97h-97zM12 780v97h97v-97h-97z
M524 780v97h97v-97h-97zM140 908v97h97v-97h-97zM268 908v97h97v-97h-97zM396 908v97h97v-97h-97z" />
    <glyph glyph-name="Egrave" unicode="&#xc8;" 
d="M12 12v97h97v-97h-97zM140 12v97h97v-97h-97zM268 12v97h97v-97h-97zM396 12v97h97v-97h-97zM524 12v97h97v-97h-97zM12 140v97h97v-97h-97zM12 268v97h97v-97h-97zM140 268v97h97v-97h-97zM268 268v97h97v-97h-97zM396 268v97h97v-97h-97zM12 396v97h97v-97h-97zM12 524
v97h97v-97h-97zM140 524v97h97v-97h-97zM268 524v97h97v-97h-97zM396 524v97h97v-97h-97zM524 524v97h97v-97h-97zM268 780v97h97v-97h-97zM140 908v97h97v-97h-97z" />
    <glyph glyph-name="Eacute" unicode="&#xc9;" 
d="M12 12v97h97v-97h-97zM140 12v97h97v-97h-97zM268 12v97h97v-97h-97zM396 12v97h97v-97h-97zM524 12v97h97v-97h-97zM12 140v97h97v-97h-97zM12 268v97h97v-97h-97zM140 268v97h97v-97h-97zM268 268v97h97v-97h-97zM396 268v97h97v-97h-97zM12 396v97h97v-97h-97zM12 524
v97h97v-97h-97zM140 524v97h97v-97h-97zM268 524v97h97v-97h-97zM396 524v97h97v-97h-97zM524 524v97h97v-97h-97zM268 780v97h97v-97h-97zM396 908v97h97v-97h-97z" />
    <glyph glyph-name="Ecircumflex" unicode="&#xca;" 
d="M12 12v97h97v-97h-97zM140 12v97h97v-97h-97zM268 12v97h97v-97h-97zM396 12v97h97v-97h-97zM524 12v97h97v-97h-97zM12 140v97h97v-97h-97zM12 268v97h97v-97h-97zM140 268v97h97v-97h-97zM268 268v97h97v-97h-97zM396 268v97h97v-97h-97zM12 396v97h97v-97h-97zM12 524
v97h97v-97h-97zM140 524v97h97v-97h-97zM268 524v97h97v-97h-97zM396 524v97h97v-97h-97zM524 524v97h97v-97h-97zM140 780v97h97v-97h-97zM396 780v97h97v-97h-97zM268 908v97h97v-97h-97z" />
    <glyph glyph-name="Edieresis" unicode="&#xcb;" 
d="M12 12v97h97v-97h-97zM140 12v97h97v-97h-97zM268 12v97h97v-97h-97zM396 12v97h97v-97h-97zM524 12v97h97v-97h-97zM12 140v97h97v-97h-97zM12 268v97h97v-97h-97zM140 268v97h97v-97h-97zM268 268v97h97v-97h-97zM396 268v97h97v-97h-97zM12 396v97h97v-97h-97zM12 524
v97h97v-97h-97zM140 524v97h97v-97h-97zM268 524v97h97v-97h-97zM396 524v97h97v-97h-97zM524 524v97h97v-97h-97zM140 780v97h97v-97h-97zM396 780v97h97v-97h-97z" />
    <glyph glyph-name="Igrave" unicode="&#xcc;" horiz-adv-x="768" 
d="M140 12v97h97v-97h-97zM268 12v97h97v-97h-97zM396 12v97h97v-97h-97zM268 140v97h97v-97h-97zM268 268v97h97v-97h-97zM268 396v97h97v-97h-97zM140 524v97h97v-97h-97zM268 524v97h97v-97h-97zM396 524v97h97v-97h-97zM268 780v97h97v-97h-97zM140 908v97h97v-97h-97z
" />
    <glyph glyph-name="Iacute" unicode="&#xcd;" horiz-adv-x="768" 
d="M140 12v97h97v-97h-97zM268 12v97h97v-97h-97zM396 12v97h97v-97h-97zM268 140v97h97v-97h-97zM268 268v97h97v-97h-97zM268 396v97h97v-97h-97zM140 524v97h97v-97h-97zM268 524v97h97v-97h-97zM396 524v97h97v-97h-97zM268 780v97h97v-97h-97zM396 908v97h97v-97h-97z
" />
    <glyph glyph-name="Icircumflex" unicode="&#xce;" horiz-adv-x="768" 
d="M140 12v97h97v-97h-97zM268 12v97h97v-97h-97zM396 12v97h97v-97h-97zM268 140v97h97v-97h-97zM268 268v97h97v-97h-97zM268 396v97h97v-97h-97zM140 524v97h97v-97h-97zM268 524v97h97v-97h-97zM396 524v97h97v-97h-97zM140 780v97h97v-97h-97zM396 780v97h97v-97h-97z
M268 908v97h97v-97h-97z" />
    <glyph glyph-name="Idieresis" unicode="&#xcf;" horiz-adv-x="768" 
d="M140 12v97h97v-97h-97zM268 12v97h97v-97h-97zM396 12v97h97v-97h-97zM268 140v97h97v-97h-97zM268 268v97h97v-97h-97zM268 396v97h97v-97h-97zM140 524v97h97v-97h-97zM268 524v97h97v-97h-97zM396 524v97h97v-97h-97zM140 780v97h97v-97h-97zM396 780v97h97v-97h-97z
" />
    <glyph glyph-name="Eth" unicode="&#xd0;" 
d="M140 12v97h97v-97h-97zM268 12v97h97v-97h-97zM396 12v97h97v-97h-97zM140 140v97h97v-97h-97zM524 140v97h97v-97h-97zM140 268v97h97v-97h-97zM524 268v97h97v-97h-97zM12 396v97h97v-97h-97zM140 396v97h97v-97h-97zM268 396v97h97v-97h-97zM524 396v97h97v-97h-97z
M140 524v97h97v-97h-97zM524 524v97h97v-97h-97zM140 652v97h97v-97h-97zM524 652v97h97v-97h-97zM140 780v97h97v-97h-97zM268 780v97h97v-97h-97zM396 780v97h97v-97h-97z" />
    <glyph glyph-name="Ntilde" unicode="&#xd1;" 
d="M12 12v97h97v-97h-97zM524 12v97h97v-97h-97zM12 140v97h97v-97h-97zM396 140v97h97v-97h-97zM524 140v97h97v-97h-97zM12 268v97h97v-97h-97zM268 268v97h97v-97h-97zM524 268v97h97v-97h-97zM12 396v97h97v-97h-97zM140 396v97h97v-97h-97zM524 396v97h97v-97h-97z
M12 524v97h97v-97h-97zM524 524v97h97v-97h-97zM12 780v97h97v-97h-97zM396 780v97h97v-97h-97zM140 908v97h97v-97h-97zM268 908v97h97v-97h-97zM524 908v97h97v-97h-97z" />
    <glyph glyph-name="Ograve" unicode="&#xd2;" 
d="M140 12v97h97v-97h-97zM268 12v97h97v-97h-97zM396 12v97h97v-97h-97zM12 140v97h97v-97h-97zM524 140v97h97v-97h-97zM12 268v97h97v-97h-97zM524 268v97h97v-97h-97zM12 396v97h97v-97h-97zM524 396v97h97v-97h-97zM12 524v97h97v-97h-97zM524 524v97h97v-97h-97z
M140 652v97h97v-97h-97zM268 652v97h97v-97h-97zM396 652v97h97v-97h-97zM268 780v97h97v-97h-97zM140 908v97h97v-97h-97z" />
    <glyph glyph-name="Oacute" unicode="&#xd3;" 
d="M140 12v97h97v-97h-97zM268 12v97h97v-97h-97zM396 12v97h97v-97h-97zM12 140v97h97v-97h-97zM524 140v97h97v-97h-97zM12 268v97h97v-97h-97zM524 268v97h97v-97h-97zM12 396v97h97v-97h-97zM524 396v97h97v-97h-97zM12 524v97h97v-97h-97zM524 524v97h97v-97h-97z
M140 652v97h97v-97h-97zM268 652v97h97v-97h-97zM396 652v97h97v-97h-97zM268 780v97h97v-97h-97zM396 908v97h97v-97h-97z" />
    <glyph glyph-name="Ocircumflex" unicode="&#xd4;" 
d="M140 12v97h97v-97h-97zM268 12v97h97v-97h-97zM396 12v97h97v-97h-97zM12 140v97h97v-97h-97zM524 140v97h97v-97h-97zM12 268v97h97v-97h-97zM524 268v97h97v-97h-97zM12 396v97h97v-97h-97zM524 396v97h97v-97h-97zM140 524v97h97v-97h-97zM268 524v97h97v-97h-97z
M396 524v97h97v-97h-97zM140 780v97h97v-97h-97zM396 780v97h97v-97h-97zM268 908v97h97v-97h-97z" />
    <glyph glyph-name="Otilde" unicode="&#xd5;" 
d="M140 12v97h97v-97h-97zM268 12v97h97v-97h-97zM396 12v97h97v-97h-97zM12 140v97h97v-97h-97zM524 140v97h97v-97h-97zM12 268v97h97v-97h-97zM524 268v97h97v-97h-97zM12 396v97h97v-97h-97zM524 396v97h97v-97h-97zM140 524v97h97v-97h-97zM268 524v97h97v-97h-97z
M396 524v97h97v-97h-97zM12 780v97h97v-97h-97zM396 780v97h97v-97h-97zM140 908v97h97v-97h-97zM268 908v97h97v-97h-97zM524 908v97h97v-97h-97z" />
    <glyph glyph-name="Odieresis" unicode="&#xd6;" 
d="M140 12v97h97v-97h-97zM268 12v97h97v-97h-97zM396 12v97h97v-97h-97zM12 140v97h97v-97h-97zM524 140v97h97v-97h-97zM12 268v97h97v-97h-97zM524 268v97h97v-97h-97zM12 396v97h97v-97h-97zM524 396v97h97v-97h-97zM12 524v97h97v-97h-97zM524 524v97h97v-97h-97z
M140 652v97h97v-97h-97zM268 652v97h97v-97h-97zM396 652v97h97v-97h-97zM140 908v97h97v-97h-97zM396 908v97h97v-97h-97z" />
    <glyph glyph-name="multiply" unicode="&#xd7;" 
d="M12 140v97h97v-97h-97zM524 140v97h97v-97h-97zM140 268v97h97v-97h-97zM396 268v97h97v-97h-97zM268 396v97h97v-97h-97zM140 524v97h97v-97h-97zM396 524v97h97v-97h-97zM12 652v97h97v-97h-97zM524 652v97h97v-97h-97z" />
    <glyph glyph-name="Oslash" unicode="&#xd8;" 
d="M140 12v97h97v-97h-97zM268 12v97h97v-97h-97zM396 12v97h97v-97h-97zM268 140v97h97v-97h-97zM140 268v97h97v-97h-97zM268 268v97h97v-97h-97zM396 268v97h97v-97h-97zM12 396v97h97v-97h-97zM268 396v97h97v-97h-97zM524 396v97h97v-97h-97zM140 524v97h97v-97h-97z
M268 524v97h97v-97h-97zM396 524v97h97v-97h-97zM268 652v97h97v-97h-97zM140 780v97h97v-97h-97zM268 780v97h97v-97h-97zM396 780v97h97v-97h-97z" />
    <glyph glyph-name="Ugrave" unicode="&#xd9;" 
d="M140 12v97h97v-97h-97zM268 12v97h97v-97h-97zM396 12v97h97v-97h-97zM12 140v97h97v-97h-97zM524 140v97h97v-97h-97zM12 268v97h97v-97h-97zM524 268v97h97v-97h-97zM12 396v97h97v-97h-97zM524 396v97h97v-97h-97zM12 524v97h97v-97h-97zM524 524v97h97v-97h-97z
M12 652v97h97v-97h-97zM524 652v97h97v-97h-97zM268 780v97h97v-97h-97zM140 908v97h97v-97h-97z" />
    <glyph glyph-name="Uacute" unicode="&#xda;" 
d="M140 12v97h97v-97h-97zM268 12v97h97v-97h-97zM396 12v97h97v-97h-97zM12 140v97h97v-97h-97zM524 140v97h97v-97h-97zM12 268v97h97v-97h-97zM524 268v97h97v-97h-97zM12 396v97h97v-97h-97zM524 396v97h97v-97h-97zM12 524v97h97v-97h-97zM524 524v97h97v-97h-97z
M12 652v97h97v-97h-97zM524 652v97h97v-97h-97zM268 780v97h97v-97h-97zM396 908v97h97v-97h-97z" />
    <glyph glyph-name="Ucircumflex" unicode="&#xdb;" 
d="M140 12v97h97v-97h-97zM268 12v97h97v-97h-97zM396 12v97h97v-97h-97zM12 140v97h97v-97h-97zM524 140v97h97v-97h-97zM12 268v97h97v-97h-97zM524 268v97h97v-97h-97zM12 396v97h97v-97h-97zM524 396v97h97v-97h-97zM12 524v97h97v-97h-97zM524 524v97h97v-97h-97z
M140 780v97h97v-97h-97zM396 780v97h97v-97h-97zM268 908v97h97v-97h-97z" />
    <glyph glyph-name="Udieresis" unicode="&#xdc;" 
d="M140 12v97h97v-97h-97zM268 12v97h97v-97h-97zM396 12v97h97v-97h-97zM12 140v97h97v-97h-97zM524 140v97h97v-97h-97zM12 268v97h97v-97h-97zM524 268v97h97v-97h-97zM12 396v97h97v-97h-97zM524 396v97h97v-97h-97zM12 524v97h97v-97h-97zM524 524v97h97v-97h-97z
M12 652v97h97v-97h-97zM524 652v97h97v-97h-97zM140 908v97h97v-97h-97zM396 908v97h97v-97h-97z" />
    <glyph glyph-name="Yacute" unicode="&#xdd;" 
d="M268 12v97h97v-97h-97zM268 140v97h97v-97h-97zM268 268v97h97v-97h-97zM268 396v97h97v-97h-97zM268 524v97h97v-97h-97zM140 652v97h97v-97h-97zM396 652v97h97v-97h-97zM12 780v97h97v-97h-97zM524 780v97h97v-97h-97zM268 908v97h97v-97h-97zM396 1036v97h97v-97h-97
z" />
    <glyph glyph-name="Thorn" unicode="&#xde;" 
d="M12 12v97h97v-97h-97zM140 12v97h97v-97h-97zM268 12v97h97v-97h-97zM140 140v97h97v-97h-97zM140 268v97h97v-97h-97zM268 268v97h97v-97h-97zM396 268v97h97v-97h-97zM140 396v97h97v-97h-97zM524 396v97h97v-97h-97zM140 524v97h97v-97h-97zM524 524v97h97v-97h-97z
M140 652v97h97v-97h-97zM268 652v97h97v-97h-97zM396 652v97h97v-97h-97zM140 780v97h97v-97h-97zM12 908v97h97v-97h-97zM140 908v97h97v-97h-97z" />
    <glyph glyph-name="germandbls" unicode="&#xdf;" 
d="M12 12v97h97v-97h-97zM268 12v97h97v-97h-97zM396 12v97h97v-97h-97zM140 140v97h97v-97h-97zM524 140v97h97v-97h-97zM140 268v97h97v-97h-97zM524 268v97h97v-97h-97zM140 396v97h97v-97h-97zM268 396v97h97v-97h-97zM396 396v97h97v-97h-97zM140 524v97h97v-97h-97z
M524 524v97h97v-97h-97zM140 652v97h97v-97h-97zM524 652v97h97v-97h-97zM268 780v97h97v-97h-97zM396 780v97h97v-97h-97z" />
    <glyph glyph-name="agrave" unicode="&#xe0;" 
d="M140 12v97h97v-97h-97zM268 12v97h97v-97h-97zM396 12v97h97v-97h-97zM524 12v97h97v-97h-97zM12 140v97h97v-97h-97zM524 140v97h97v-97h-97zM140 268v97h97v-97h-97zM268 268v97h97v-97h-97zM396 268v97h97v-97h-97zM524 268v97h97v-97h-97zM524 396v97h97v-97h-97z
M140 524v97h97v-97h-97zM268 524v97h97v-97h-97zM396 524v97h97v-97h-97zM268 780v97h97v-97h-97zM140 908v97h97v-97h-97z" />
    <glyph glyph-name="aacute" unicode="&#xe1;" 
d="M140 12v97h97v-97h-97zM268 12v97h97v-97h-97zM396 12v97h97v-97h-97zM524 12v97h97v-97h-97zM12 140v97h97v-97h-97zM524 140v97h97v-97h-97zM140 268v97h97v-97h-97zM268 268v97h97v-97h-97zM396 268v97h97v-97h-97zM524 268v97h97v-97h-97zM524 396v97h97v-97h-97z
M140 524v97h97v-97h-97zM268 524v97h97v-97h-97zM396 524v97h97v-97h-97zM268 780v97h97v-97h-97zM396 908v97h97v-97h-97z" />
    <glyph glyph-name="acircumflex" unicode="&#xe2;" 
d="M140 12v97h97v-97h-97zM268 12v97h97v-97h-97zM396 12v97h97v-97h-97zM524 12v97h97v-97h-97zM12 140v97h97v-97h-97zM524 140v97h97v-97h-97zM140 268v97h97v-97h-97zM268 268v97h97v-97h-97zM396 268v97h97v-97h-97zM524 268v97h97v-97h-97zM524 396v97h97v-97h-97z
M140 524v97h97v-97h-97zM268 524v97h97v-97h-97zM396 524v97h97v-97h-97zM140 780v97h97v-97h-97zM396 780v97h97v-97h-97zM268 908v97h97v-97h-97z" />
    <glyph glyph-name="atilde" unicode="&#xe3;" 
d="M140 12v97h97v-97h-97zM268 12v97h97v-97h-97zM396 12v97h97v-97h-97zM524 12v97h97v-97h-97zM12 140v97h97v-97h-97zM524 140v97h97v-97h-97zM140 268v97h97v-97h-97zM268 268v97h97v-97h-97zM396 268v97h97v-97h-97zM524 268v97h97v-97h-97zM524 396v97h97v-97h-97z
M140 524v97h97v-97h-97zM268 524v97h97v-97h-97zM396 524v97h97v-97h-97zM12 780v97h97v-97h-97zM396 780v97h97v-97h-97zM140 908v97h97v-97h-97zM268 908v97h97v-97h-97zM524 908v97h97v-97h-97z" />
    <glyph glyph-name="adieresis" unicode="&#xe4;" 
d="M140 12v97h97v-97h-97zM268 12v97h97v-97h-97zM396 12v97h97v-97h-97zM524 12v97h97v-97h-97zM12 140v97h97v-97h-97zM524 140v97h97v-97h-97zM140 268v97h97v-97h-97zM268 268v97h97v-97h-97zM396 268v97h97v-97h-97zM524 268v97h97v-97h-97zM524 396v97h97v-97h-97z
M140 524v97h97v-97h-97zM268 524v97h97v-97h-97zM396 524v97h97v-97h-97zM140 780v97h97v-97h-97zM396 780v97h97v-97h-97z" />
    <glyph glyph-name="aring" unicode="&#xe5;" 
d="M140 12v97h97v-97h-97zM268 12v97h97v-97h-97zM396 12v97h97v-97h-97zM524 12v97h97v-97h-97zM12 140v97h97v-97h-97zM524 140v97h97v-97h-97zM140 268v97h97v-97h-97zM268 268v97h97v-97h-97zM396 268v97h97v-97h-97zM524 268v97h97v-97h-97zM524 396v97h97v-97h-97z
M140 524v97h97v-97h-97zM268 524v97h97v-97h-97zM396 524v97h97v-97h-97zM524 524v97h97v-97h-97zM268 652v97h97v-97h-97zM140 780v97h97v-97h-97zM396 780v97h97v-97h-97zM268 908v97h97v-97h-97z" />
    <glyph glyph-name="ae" unicode="&#xe6;" 
d="M140 12v97h97v-97h-97zM396 12v97h97v-97h-97zM12 140v97h97v-97h-97zM268 140v97h97v-97h-97zM524 140v97h97v-97h-97zM12 268v97h97v-97h-97zM268 268v97h97v-97h-97zM140 396v97h97v-97h-97zM268 396v97h97v-97h-97zM396 396v97h97v-97h-97zM524 396v97h97v-97h-97z
M268 524v97h97v-97h-97zM524 524v97h97v-97h-97zM12 652v97h97v-97h-97zM140 652v97h97v-97h-97zM396 652v97h97v-97h-97z" />
    <glyph glyph-name="ccedilla" unicode="&#xe7;" 
d="M140 12v97h97v-97h-97zM268 12v97h97v-97h-97zM268 140v97h97v-97h-97zM140 268v97h97v-97h-97zM268 268v97h97v-97h-97zM396 268v97h97v-97h-97zM12 396v97h97v-97h-97zM524 396v97h97v-97h-97zM12 524v97h97v-97h-97zM140 652v97h97v-97h-97zM268 652v97h97v-97h-97z
M396 652v97h97v-97h-97z" />
    <glyph glyph-name="egrave" unicode="&#xe8;" 
d="M140 12v97h97v-97h-97zM268 12v97h97v-97h-97zM396 12v97h97v-97h-97zM12 140v97h97v-97h-97zM12 268v97h97v-97h-97zM140 268v97h97v-97h-97zM268 268v97h97v-97h-97zM396 268v97h97v-97h-97zM524 268v97h97v-97h-97zM12 396v97h97v-97h-97zM524 396v97h97v-97h-97z
M140 524v97h97v-97h-97zM268 524v97h97v-97h-97zM396 524v97h97v-97h-97zM268 780v97h97v-97h-97zM140 908v97h97v-97h-97z" />
    <glyph glyph-name="eacute" unicode="&#xe9;" 
d="M140 12v97h97v-97h-97zM268 12v97h97v-97h-97zM396 12v97h97v-97h-97zM12 140v97h97v-97h-97zM12 268v97h97v-97h-97zM140 268v97h97v-97h-97zM268 268v97h97v-97h-97zM396 268v97h97v-97h-97zM524 268v97h97v-97h-97zM12 396v97h97v-97h-97zM524 396v97h97v-97h-97z
M140 524v97h97v-97h-97zM268 524v97h97v-97h-97zM396 524v97h97v-97h-97zM268 780v97h97v-97h-97zM396 908v97h97v-97h-97z" />
    <glyph glyph-name="ecircumflex" unicode="&#xea;" 
d="M140 12v97h97v-97h-97zM268 12v97h97v-97h-97zM396 12v97h97v-97h-97zM12 140v97h97v-97h-97zM12 268v97h97v-97h-97zM140 268v97h97v-97h-97zM268 268v97h97v-97h-97zM396 268v97h97v-97h-97zM524 268v97h97v-97h-97zM12 396v97h97v-97h-97zM524 396v97h97v-97h-97z
M140 524v97h97v-97h-97zM268 524v97h97v-97h-97zM396 524v97h97v-97h-97zM140 780v97h97v-97h-97zM396 780v97h97v-97h-97zM268 908v97h97v-97h-97z" />
    <glyph glyph-name="edieresis" unicode="&#xeb;" 
d="M140 12v97h97v-97h-97zM268 12v97h97v-97h-97zM396 12v97h97v-97h-97zM12 140v97h97v-97h-97zM12 268v97h97v-97h-97zM140 268v97h97v-97h-97zM268 268v97h97v-97h-97zM396 268v97h97v-97h-97zM524 268v97h97v-97h-97zM12 396v97h97v-97h-97zM524 396v97h97v-97h-97z
M140 524v97h97v-97h-97zM268 524v97h97v-97h-97zM396 524v97h97v-97h-97zM140 780v97h97v-97h-97zM396 780v97h97v-97h-97z" />
    <glyph glyph-name="igrave" unicode="&#xec;" horiz-adv-x="768" 
d="M140 12v97h97v-97h-97zM268 12v97h97v-97h-97zM396 12v97h97v-97h-97zM268 140v97h97v-97h-97zM268 268v97h97v-97h-97zM140 396v97h97v-97h-97zM268 396v97h97v-97h-97zM268 524v97h97v-97h-97zM268 780v97h97v-97h-97zM140 908v97h97v-97h-97z" />
    <glyph glyph-name="iacute" unicode="&#xed;" horiz-adv-x="768" 
d="M140 12v97h97v-97h-97zM268 12v97h97v-97h-97zM396 12v97h97v-97h-97zM268 140v97h97v-97h-97zM268 268v97h97v-97h-97zM140 396v97h97v-97h-97zM268 396v97h97v-97h-97zM268 524v97h97v-97h-97zM268 780v97h97v-97h-97zM396 908v97h97v-97h-97z" />
    <glyph glyph-name="icircumflex" unicode="&#xee;" horiz-adv-x="768" 
d="M140 12v97h97v-97h-97zM268 12v97h97v-97h-97zM396 12v97h97v-97h-97zM268 140v97h97v-97h-97zM268 268v97h97v-97h-97zM140 396v97h97v-97h-97zM268 396v97h97v-97h-97zM268 524v97h97v-97h-97zM140 780v97h97v-97h-97zM396 780v97h97v-97h-97zM268 908v97h97v-97h-97z
" />
    <glyph glyph-name="idieresis" unicode="&#xef;" horiz-adv-x="768" 
d="M140 12v97h97v-97h-97zM268 12v97h97v-97h-97zM396 12v97h97v-97h-97zM268 140v97h97v-97h-97zM268 268v97h97v-97h-97zM140 396v97h97v-97h-97zM268 396v97h97v-97h-97zM268 524v97h97v-97h-97zM140 780v97h97v-97h-97zM396 780v97h97v-97h-97z" />
    <glyph glyph-name="eth" unicode="&#xf0;" 
d="M140 12v97h97v-97h-97zM268 12v97h97v-97h-97zM396 12v97h97v-97h-97zM12 140v97h97v-97h-97zM524 140v97h97v-97h-97zM140 268v97h97v-97h-97zM268 268v97h97v-97h-97zM396 268v97h97v-97h-97zM524 268v97h97v-97h-97zM396 396v97h97v-97h-97zM12 524v97h97v-97h-97z
M268 524v97h97v-97h-97zM140 652v97h97v-97h-97zM12 780v97h97v-97h-97zM268 780v97h97v-97h-97z" />
    <glyph glyph-name="ntilde" unicode="&#xf1;" 
d="M12 12v97h97v-97h-97zM524 12v97h97v-97h-97zM12 140v97h97v-97h-97zM524 140v97h97v-97h-97zM12 268v97h97v-97h-97zM524 268v97h97v-97h-97zM12 396v97h97v-97h-97zM140 396v97h97v-97h-97zM524 396v97h97v-97h-97zM12 524v97h97v-97h-97zM268 524v97h97v-97h-97z
M396 524v97h97v-97h-97zM12 780v97h97v-97h-97zM396 780v97h97v-97h-97zM140 908v97h97v-97h-97zM268 908v97h97v-97h-97zM524 908v97h97v-97h-97z" />
    <glyph glyph-name="ograve" unicode="&#xf2;" 
d="M140 12v97h97v-97h-97zM268 12v97h97v-97h-97zM396 12v97h97v-97h-97zM12 140v97h97v-97h-97zM524 140v97h97v-97h-97zM12 268v97h97v-97h-97zM524 268v97h97v-97h-97zM12 396v97h97v-97h-97zM524 396v97h97v-97h-97zM140 524v97h97v-97h-97zM268 524v97h97v-97h-97z
M396 524v97h97v-97h-97zM268 780v97h97v-97h-97zM140 908v97h97v-97h-97z" />
    <glyph glyph-name="oacute" unicode="&#xf3;" 
d="M140 12v97h97v-97h-97zM268 12v97h97v-97h-97zM396 12v97h97v-97h-97zM12 140v97h97v-97h-97zM524 140v97h97v-97h-97zM12 268v97h97v-97h-97zM524 268v97h97v-97h-97zM12 396v97h97v-97h-97zM524 396v97h97v-97h-97zM140 524v97h97v-97h-97zM268 524v97h97v-97h-97z
M396 524v97h97v-97h-97zM268 780v97h97v-97h-97zM396 908v97h97v-97h-97z" />
    <glyph glyph-name="ocircumflex" unicode="&#xf4;" 
d="M140 12v97h97v-97h-97zM268 12v97h97v-97h-97zM396 12v97h97v-97h-97zM12 140v97h97v-97h-97zM524 140v97h97v-97h-97zM12 268v97h97v-97h-97zM524 268v97h97v-97h-97zM140 396v97h97v-97h-97zM268 396v97h97v-97h-97zM396 396v97h97v-97h-97zM140 652v97h97v-97h-97z
M396 652v97h97v-97h-97zM268 780v97h97v-97h-97z" />
    <glyph glyph-name="otilde" unicode="&#xf5;" 
d="M140 12v97h97v-97h-97zM268 12v97h97v-97h-97zM396 12v97h97v-97h-97zM12 140v97h97v-97h-97zM524 140v97h97v-97h-97zM12 268v97h97v-97h-97zM524 268v97h97v-97h-97zM140 396v97h97v-97h-97zM268 396v97h97v-97h-97zM396 396v97h97v-97h-97zM12 652v97h97v-97h-97z
M396 652v97h97v-97h-97zM140 780v97h97v-97h-97zM268 780v97h97v-97h-97zM524 780v97h97v-97h-97z" />
    <glyph glyph-name="odieresis" unicode="&#xf6;" 
d="M140 12v97h97v-97h-97zM268 12v97h97v-97h-97zM396 12v97h97v-97h-97zM12 140v97h97v-97h-97zM524 140v97h97v-97h-97zM12 268v97h97v-97h-97zM524 268v97h97v-97h-97zM12 396v97h97v-97h-97zM524 396v97h97v-97h-97zM140 524v97h97v-97h-97zM268 524v97h97v-97h-97z
M396 524v97h97v-97h-97zM140 780v97h97v-97h-97zM396 780v97h97v-97h-97z" />
    <glyph glyph-name="divide" unicode="&#xf7;" 
d="M268 140v97h97v-97h-97zM12 396v97h97v-97h-97zM140 396v97h97v-97h-97zM268 396v97h97v-97h-97zM396 396v97h97v-97h-97zM524 396v97h97v-97h-97zM268 652v97h97v-97h-97z" />
    <glyph glyph-name="oslash" unicode="&#xf8;" 
d="M140 12v97h97v-97h-97zM268 140v97h97v-97h-97zM140 268v97h97v-97h-97zM268 268v97h97v-97h-97zM396 268v97h97v-97h-97zM12 396v97h97v-97h-97zM268 396v97h97v-97h-97zM524 396v97h97v-97h-97zM140 524v97h97v-97h-97zM268 524v97h97v-97h-97zM396 524v97h97v-97h-97z
M268 652v97h97v-97h-97zM396 780v97h97v-97h-97z" />
    <glyph glyph-name="ugrave" unicode="&#xf9;" 
d="M140 12v97h97v-97h-97zM268 12v97h97v-97h-97zM524 12v97h97v-97h-97zM12 140v97h97v-97h-97zM396 140v97h97v-97h-97zM524 140v97h97v-97h-97zM12 268v97h97v-97h-97zM524 268v97h97v-97h-97zM12 396v97h97v-97h-97zM524 396v97h97v-97h-97zM12 524v97h97v-97h-97z
M524 524v97h97v-97h-97zM268 780v97h97v-97h-97zM140 908v97h97v-97h-97z" />
    <glyph glyph-name="uacute" unicode="&#xfa;" 
d="M140 12v97h97v-97h-97zM268 12v97h97v-97h-97zM524 12v97h97v-97h-97zM12 140v97h97v-97h-97zM396 140v97h97v-97h-97zM524 140v97h97v-97h-97zM12 268v97h97v-97h-97zM524 268v97h97v-97h-97zM12 396v97h97v-97h-97zM524 396v97h97v-97h-97zM12 524v97h97v-97h-97z
M524 524v97h97v-97h-97zM268 780v97h97v-97h-97zM396 908v97h97v-97h-97z" />
    <glyph glyph-name="ucircumflex" unicode="&#xfb;" 
d="M140 12v97h97v-97h-97zM268 12v97h97v-97h-97zM524 12v97h97v-97h-97zM12 140v97h97v-97h-97zM396 140v97h97v-97h-97zM524 140v97h97v-97h-97zM12 268v97h97v-97h-97zM524 268v97h97v-97h-97zM12 396v97h97v-97h-97zM524 396v97h97v-97h-97zM12 524v97h97v-97h-97z
M524 524v97h97v-97h-97zM140 780v97h97v-97h-97zM396 780v97h97v-97h-97zM268 908v97h97v-97h-97z" />
    <glyph glyph-name="udieresis" unicode="&#xfc;" 
d="M140 12v97h97v-97h-97zM268 12v97h97v-97h-97zM524 12v97h97v-97h-97zM12 140v97h97v-97h-97zM396 140v97h97v-97h-97zM524 140v97h97v-97h-97zM12 268v97h97v-97h-97zM524 268v97h97v-97h-97zM12 396v97h97v-97h-97zM524 396v97h97v-97h-97zM12 524v97h97v-97h-97z
M524 524v97h97v-97h-97zM140 780v97h97v-97h-97zM396 780v97h97v-97h-97z" />
    <glyph glyph-name="yacute" unicode="&#xfd;" 
d="M140 12v97h97v-97h-97zM268 12v97h97v-97h-97zM396 12v97h97v-97h-97zM524 140v97h97v-97h-97zM140 268v97h97v-97h-97zM268 268v97h97v-97h-97zM396 268v97h97v-97h-97zM524 268v97h97v-97h-97zM12 396v97h97v-97h-97zM524 396v97h97v-97h-97zM12 524v97h97v-97h-97z
M524 524v97h97v-97h-97zM268 652v97h97v-97h-97zM396 780v97h97v-97h-97z" />
    <glyph glyph-name="thorn" unicode="&#xfe;" horiz-adv-x="768" 
d="M140 12v97h97v-97h-97zM268 12v97h97v-97h-97zM396 12v97h97v-97h-97zM268 140v97h97v-97h-97zM268 268v97h97v-97h-97zM396 268v97h97v-97h-97zM268 396v97h97v-97h-97zM524 396v97h97v-97h-97zM268 524v97h97v-97h-97zM396 524v97h97v-97h-97zM268 652v97h97v-97h-97z
M140 780v97h97v-97h-97zM268 780v97h97v-97h-97z" />
    <glyph glyph-name="ydieresis" unicode="&#xff;" 
d="M140 12v97h97v-97h-97zM268 12v97h97v-97h-97zM396 12v97h97v-97h-97zM524 140v97h97v-97h-97zM140 268v97h97v-97h-97zM268 268v97h97v-97h-97zM396 268v97h97v-97h-97zM524 268v97h97v-97h-97zM12 396v97h97v-97h-97zM524 396v97h97v-97h-97zM12 524v97h97v-97h-97z
M524 524v97h97v-97h-97zM140 780v97h97v-97h-97zM396 780v97h97v-97h-97z" />
    <glyph glyph-name="OE" unicode="&#x152;" 
d="M140 12v97h97v-97h-97zM268 12v97h97v-97h-97zM524 12v97h97v-97h-97zM12 140v97h97v-97h-97zM396 140v97h97v-97h-97zM12 268v97h97v-97h-97zM396 268v97h97v-97h-97zM12 396v97h97v-97h-97zM396 396v97h97v-97h-97zM524 396v97h97v-97h-97zM12 524v97h97v-97h-97z
M396 524v97h97v-97h-97zM12 652v97h97v-97h-97zM396 652v97h97v-97h-97zM140 780v97h97v-97h-97zM268 780v97h97v-97h-97zM524 780v97h97v-97h-97z" />
    <glyph glyph-name="oe" unicode="&#x153;" 
d="M140 12v97h97v-97h-97zM396 12v97h97v-97h-97zM524 12v97h97v-97h-97zM12 140v97h97v-97h-97zM268 140v97h97v-97h-97zM12 268v97h97v-97h-97zM268 268v97h97v-97h-97zM396 268v97h97v-97h-97zM524 268v97h97v-97h-97zM12 396v97h97v-97h-97zM268 396v97h97v-97h-97z
M524 396v97h97v-97h-97zM140 524v97h97v-97h-97zM396 524v97h97v-97h-97z" />
    <glyph glyph-name="Scaron" unicode="&#x160;" 
d="M140 12v97h97v-97h-97zM268 12v97h97v-97h-97zM396 12v97h97v-97h-97zM12 140v97h97v-97h-97zM524 140v97h97v-97h-97zM524 268v97h97v-97h-97zM140 396v97h97v-97h-97zM268 396v97h97v-97h-97zM396 396v97h97v-97h-97zM12 524v97h97v-97h-97zM12 652v97h97v-97h-97z
M524 652v97h97v-97h-97zM140 780v97h97v-97h-97zM268 780v97h97v-97h-97zM396 780v97h97v-97h-97zM140 908v97h97v-97h-97zM396 908v97h97v-97h-97z" />
    <glyph glyph-name="scaron" unicode="&#x161;" 
d="M12 12v97h97v-97h-97zM140 12v97h97v-97h-97zM268 12v97h97v-97h-97zM396 12v97h97v-97h-97zM524 140v97h97v-97h-97zM140 268v97h97v-97h-97zM268 268v97h97v-97h-97zM396 268v97h97v-97h-97zM12 396v97h97v-97h-97zM140 524v97h97v-97h-97zM268 524v97h97v-97h-97z
M396 524v97h97v-97h-97zM268 780v97h97v-97h-97zM140 908v97h97v-97h-97zM396 908v97h97v-97h-97z" />
    <glyph glyph-name="Ydieresis" unicode="&#x178;" 
d="M268 12v97h97v-97h-97zM268 140v97h97v-97h-97zM140 268v97h97v-97h-97zM396 268v97h97v-97h-97zM12 396v97h97v-97h-97zM524 396v97h97v-97h-97zM12 524v97h97v-97h-97zM524 524v97h97v-97h-97zM12 652v97h97v-97h-97zM524 652v97h97v-97h-97zM140 908v97h97v-97h-97z
M396 908v97h97v-97h-97z" />
    <glyph glyph-name="Zcaron" unicode="&#x17d;" 
d="M12 12v97h97v-97h-97zM140 12v97h97v-97h-97zM268 12v97h97v-97h-97zM396 12v97h97v-97h-97zM524 12v97h97v-97h-97zM12 140v97h97v-97h-97zM140 268v97h97v-97h-97zM268 396v97h97v-97h-97zM396 524v97h97v-97h-97zM524 652v97h97v-97h-97zM12 780v97h97v-97h-97z
M140 780v97h97v-97h-97zM268 780v97h97v-97h-97zM396 780v97h97v-97h-97zM524 780v97h97v-97h-97zM140 908v97h97v-97h-97zM396 908v97h97v-97h-97z" />
    <glyph glyph-name="zcaron" unicode="&#x17e;" 
d="M12 12v97h97v-97h-97zM140 12v97h97v-97h-97zM268 12v97h97v-97h-97zM396 12v97h97v-97h-97zM524 12v97h97v-97h-97zM140 140v97h97v-97h-97zM268 268v97h97v-97h-97zM396 396v97h97v-97h-97zM12 524v97h97v-97h-97zM140 524v97h97v-97h-97zM268 524v97h97v-97h-97z
M396 524v97h97v-97h-97zM524 524v97h97v-97h-97zM268 780v97h97v-97h-97zM140 908v97h97v-97h-97zM396 908v97h97v-97h-97z" />
    <glyph glyph-name="florin" unicode="&#x192;" 
d="M140 12v97h97v-97h-97zM12 140v97h97v-97h-97zM268 140v97h97v-97h-97zM268 268v97h97v-97h-97zM140 396v97h97v-97h-97zM268 396v97h97v-97h-97zM396 396v97h97v-97h-97zM268 524v97h97v-97h-97zM268 652v97h97v-97h-97zM524 652v97h97v-97h-97zM396 780v97h97v-97h-97z
" />
    <glyph glyph-name="emdash" unicode="&#x2014;" 
d="M12 396v97h97v-97h-97zM140 396v97h97v-97h-97zM268 396v97h97v-97h-97zM396 396v97h97v-97h-97zM524 396v97h97v-97h-97z" />
    <glyph glyph-name="quoteleft" unicode="&#x2018;" horiz-adv-x="768" 
d="M396 524v97h97v-97h-97zM268 652v97h97v-97h-97zM140 780v97h97v-97h-97z" />
    <glyph glyph-name="quoteright" unicode="&#x2019;" horiz-adv-x="768" 
d="M140 524v97h97v-97h-97zM268 652v97h97v-97h-97zM396 780v97h97v-97h-97z" />
    <glyph glyph-name="quotesinglbase" unicode="&#x201a;" horiz-adv-x="768" 
d="M140 12v97h97v-97h-97zM268 140v97h97v-97h-97zM140 268v97h97v-97h-97zM268 268v97h97v-97h-97z" />
    <glyph glyph-name="quotedblleft" unicode="&#x201c;" 
d="M268 524v97h97v-97h-97zM524 524v97h97v-97h-97zM140 652v97h97v-97h-97zM396 652v97h97v-97h-97zM12 780v97h97v-97h-97zM268 780v97h97v-97h-97z" />
    <glyph glyph-name="quotedblright" unicode="&#x201d;" 
d="M12 524v97h97v-97h-97zM268 524v97h97v-97h-97zM140 652v97h97v-97h-97zM396 652v97h97v-97h-97zM268 780v97h97v-97h-97zM524 780v97h97v-97h-97z" />
    <glyph glyph-name="quotedblbase" unicode="&#x201e;" 
d="M12 12v97h97v-97h-97zM396 12v97h97v-97h-97zM140 140v97h97v-97h-97zM524 140v97h97v-97h-97zM12 268v97h97v-97h-97zM140 268v97h97v-97h-97zM396 268v97h97v-97h-97zM524 268v97h97v-97h-97z" />
    <glyph glyph-name="dagger" unicode="&#x2020;" horiz-adv-x="768" 
d="M268 12v97h97v-97h-97zM268 140v97h97v-97h-97zM268 268v97h97v-97h-97zM268 396v97h97v-97h-97zM268 524v97h97v-97h-97zM140 652v97h97v-97h-97zM268 652v97h97v-97h-97zM396 652v97h97v-97h-97zM268 780v97h97v-97h-97z" />
    <glyph glyph-name="bullet" unicode="&#x2022;" horiz-adv-x="768" 
d="M140 268v97h97v-97h-97zM268 268v97h97v-97h-97zM396 268v97h97v-97h-97zM140 396v97h97v-97h-97zM268 396v97h97v-97h-97zM396 396v97h97v-97h-97zM140 524v97h97v-97h-97zM268 524v97h97v-97h-97zM396 524v97h97v-97h-97z" />
    <glyph glyph-name="ellipsis" unicode="&#x2026;" 
d="M12 12v97h97v-97h-97zM268 12v97h97v-97h-97zM524 12v97h97v-97h-97z" />
    <glyph glyph-name="guilsinglleft" unicode="&#x2039;" horiz-adv-x="768" 
d="M268 268v97h97v-97h-97zM140 396v97h97v-97h-97zM268 524v97h97v-97h-97z" />
    <glyph glyph-name="guilsinglright" unicode="&#x203a;" horiz-adv-x="768" 
d="M268 268v97h97v-97h-97zM396 396v97h97v-97h-97zM268 524v97h97v-97h-97z" />
    <glyph glyph-name="Euro" unicode="&#x20ac;" 
d="M268 12v97h97v-97h-97zM396 12v97h97v-97h-97zM140 140v97h97v-97h-97zM524 140v97h97v-97h-97zM12 268v97h97v-97h-97zM140 268v97h97v-97h-97zM268 268v97h97v-97h-97zM140 396v97h97v-97h-97zM12 524v97h97v-97h-97zM140 524v97h97v-97h-97zM268 524v97h97v-97h-97z
M140 652v97h97v-97h-97zM524 652v97h97v-97h-97zM268 780v97h97v-97h-97zM396 780v97h97v-97h-97z" />
    <glyph glyph-name="trademark" unicode="&#x2122;" 
d="M12 12v97h97v-97h-97zM12 140v97h97v-97h-97zM140 140v97h97v-97h-97zM268 140v97h97v-97h-97zM396 140v97h97v-97h-97zM524 140v97h97v-97h-97zM12 268v97h97v-97h-97zM12 396v97h97v-97h-97zM140 396v97h97v-97h-97zM268 396v97h97v-97h-97zM396 396v97h97v-97h-97z
M524 396v97h97v-97h-97zM140 524v97h97v-97h-97zM268 652v97h97v-97h-97zM140 780v97h97v-97h-97zM12 908v97h97v-97h-97zM140 908v97h97v-97h-97zM268 908v97h97v-97h-97zM396 908v97h97v-97h-97zM524 908v97h97v-97h-97z" />
  </font>
</defs>
</svg>
