<?xml version="1.0" standalone="no"?>
<!DOCTYPE svg PUBLIC "-//W3C//DTD SVG 1.1//EN" "http://www.w3.org/Graphics/SVG/1.1/DTD/svg11.dtd" >
<svg>
<metadata>
Created by FontForge 20110222 at Mon Jun 10 14:04:28 2013
 By www-data
Created by Sizenko Alexander. (c) 2008 Style-7. All rights reserved. http://www.styleseven.com
</metadata>
<defs>
<font id="Digital-7MonoItalic" horiz-adv-x="520" >
  <font-face 
    font-family="Digital-7 Mono"
    font-weight="400"
    font-style="italic"
    font-stretch="normal"
    units-per-em="1100"
    panose-1="2 0 0 0 0 0 0 0 0 0"
    ascent="880"
    descent="-220"
    x-height="710"
    cap-height="720"
    bbox="-23 -120 521 840"
    underline-thickness="70"
    underline-position="-85"
    unicode-range="U+0020-2030"
  />
    <missing-glyph />
    <glyph glyph-name="space" unicode=" " 
 />
    <glyph glyph-name="exclam" unicode="!" 
d="M277 350l18 -20l-18 -170h-80l14 130zM226 430l22 210l38 80q39 -10 45 -50l-29 -280l-23 -20zM261 0h-80l8 80h80z" />
    <glyph glyph-name="quotedbl" unicode="&#x22;" 
d="M236 560l-44 -40l-36 40l17 160h80zM397 561l-44 -40l-36 40l17 160h80z" />
    <glyph glyph-name="numbersign" unicode="#" 
d="M291 480l36 -40l-44 -40h-40l-36 40l44 40h40zM274 320l36 -40l-44 -40h-40l-36 40l44 40h40zM141 380l44 40l36 -40l-5 -40l-44 -40l-36 40zM301 380l44 40l36 -40l-5 -40l-44 -40l-36 40zM159 560l45 40l35 -40l-6 -60l-44 -40l-36 40zM319 560l45 40l35 -40l-6 -60
l-44 -40l-36 40zM284 221l44 40l36 -40l-7 -61l-44 -40l-36 40zM124 220l44 40l36 -40l-7 -61l-44 -40l-36 40zM114 320l36 -40l-44 -40h-40l-36 40l44 40h40zM434 319l36 -40l-44 -40h-40l-36 40l44 40h40zM451 480l36 -40l-44 -40h-40l-36 40l44 40h40zM131 479l36 -40
l-44 -40h-40l-36 40l44 40h40z" />
    <glyph glyph-name="dollar" unicode="$" 
d="M393 400l35 -40l-44 -40h-260l-36 40l45 40h260zM447 350l18 -20l-29 -280q-14 -40 -55 -50l-22 80l22 210zM361 0h-300q-39 10 -45 50l83 30h240zM156 620l-20 -190l-67 -60l-17 20l27 260zM159 640l-77 30q14 40 55 50h319q39 -10 45 -50l-83 -30h-259zM269 750l6 50
l44 40l36 -40l-6 -50h-80zM236 430l19 180h80l-19 -180h-80zM202 110l19 180h80l-19 -180h-80zM267 -30l-5 -50l-44 -40l-36 40l5 50h80z" />
    <glyph glyph-name="percent" unicode="%" 
d="M282 478l144 242q60 0 76 -40l-187 -310h-45zM235 242l-144 -242q-60 0 -76 40l186 310h45zM178 640h-60l-77 30q14 40 55 50h120zM116 620l-7 -60l-38 -80q-39 10 -45 50l13 120zM129 560h60l77 -30q-14 -40 -55 -50h-120zM192 580l6 60l38 80q39 -10 45 -50l-13 -120z
M401 100l6 60l39 80q39 -10 45 -50l-13 -120zM387 160h-60l-76 30q14 40 55 50h120zM325 140l-6 -60l-38 -80q-39 10 -45 50l12 120zM339 80h60l77 -30q-14 -40 -55 -50h-120z" />
    <glyph glyph-name="ampersand" unicode="&#x26;" 
d="M396 400l36 -40l-44 -40h-260l-36 40l44 40h260zM451 350l18 -20l-24 -230h-50l-27 30l16 160zM454 0h-390q-39 10 -45 50l83 30h320l54 -60zM21 70l28 260l22 20l53 -60l-19 -190zM357 600h-160l-77 30q14 40 55 50h220zM195 580l-12 -110l-66 -60l-18 20l19 180z
M363 470l14 130l38 80q39 -10 45 -50l-21 -200l-22 -20zM432 -20l-5 -50l-22 -20l-54 60l1 10h80z" />
    <glyph glyph-name="quotesingle" unicode="'" 
d="M316 560l-44 -40l-36 40l17 160h80z" />
    <glyph glyph-name="parenleft" unicode="(" 
d="M288 640h-110l-36 40l44 40h110l36 -40zM69 370l-17 20l24 230l55 50l27 -30l-22 -210zM265 40l-44 -40h-110l-36 40l44 40h110zM121 290l-22 -210l-33 -30l-45 50l24 230l22 20z" />
    <glyph glyph-name="parenright" unicode=")" 
d="M209 80h110l36 -40l-44 -40h-110l-36 40zM427 350l18 -20l-24 -230l-55 -50l-27 30l22 210zM232 680l44 40h110l36 -40l-44 -40h-110zM376 430l22 210l33 30l45 -50l-24 -230l-23 -20z" />
    <glyph glyph-name="asterisk" unicode="*" 
d="M226 430l8 80l44 40l36 -40l-8 -80l74 40l53 -15l-20 -55l-74 -40l65 -40l9 -55l-56 -15l-66 40l-8 -80l-45 -40l-35 40l8 80l-74 -40l-54 15l21 55l73 40l-64 40l-10 55l57 15z" />
    <glyph glyph-name="plus" unicode="+" 
d="M223 400l9 90l44 40l36 -40l-9 -90h90l35 -40l-44 -40h-90l-9 -90l-44 -40l-36 40l9 90h-90l-36 40l45 40h90z" />
    <glyph glyph-name="comma" unicode="," 
d="M272 -80l-44 -40l-36 40l17 160h80z" />
    <glyph glyph-name="hyphen" unicode="-" 
d="M393 400l35 -40l-44 -40h-260l-36 40l45 40h260z" />
    <glyph glyph-name="period" unicode="." 
d="M277 0h-80l9 80h80z" />
    <glyph glyph-name="slash" unicode="/" 
d="M282 478l144 242q60 0 76 -40l-187 -310h-45zM235 242l-144 -242q-60 0 -76 40l186 310h45z" />
    <glyph glyph-name="zero" unicode="0" 
d="M447 350l18 -20l-29 -280q-14 -40 -55 -50l-22 80l22 210zM361 0h-300q-39 10 -45 50l83 30h240zM18 70l27 260l22 20l54 -60l-20 -190zM398 640h-239l-77 30q14 40 55 50h299zM156 620l-20 -190l-67 -60l-17 20l27 260zM396 430l22 210l38 80q39 -10 45 -50l-29 -280
l-23 -20z" />
    <glyph glyph-name="one" unicode="1" 
d="M447 350l18 -20l-29 -280q-14 -40 -55 -50l-22 80l22 210zM396 430l22 210l38 80q39 -10 45 -50l-29 -280l-23 -20z" />
    <glyph glyph-name="two" unicode="2" 
d="M393 400l35 -40l-44 -40h-260l-36 40l45 40h260zM391 0h-330q-39 10 -45 50l83 30h270zM18 70l27 260l22 20l54 -60l-20 -190zM398 640h-239l-77 30q14 40 55 50h299zM396 430l22 210l38 80q39 -10 45 -50l-29 -280l-23 -20z" />
    <glyph glyph-name="three" unicode="3" 
d="M393 400l35 -40l-44 -40h-260l-36 40l45 40h260zM447 350l18 -20l-29 -280q-14 -40 -55 -50l-22 80l22 210zM361 0h-300q-39 10 -45 50l83 30h240zM398 640h-239l-77 30q14 40 55 50h299zM396 430l22 210l38 80q39 -10 45 -50l-29 -280l-23 -20z" />
    <glyph glyph-name="four" unicode="4" 
d="M393 400l35 -40l-44 -40h-260l-36 40l45 40h260zM447 350l18 -20l-29 -280q-14 -40 -55 -50l-22 80l22 210zM159 650l-23 -220l-67 -60l-17 20l30 290zM396 430l22 210l38 80q39 -10 45 -50l-29 -280l-23 -20z" />
    <glyph glyph-name="five" unicode="5" 
d="M393 400l35 -40l-44 -40h-260l-36 40l45 40h260zM447 350l18 -20l-29 -280q-14 -40 -55 -50l-22 80l22 210zM361 0h-300q-39 10 -45 50l83 30h240zM428 640h-269l-77 30q14 40 55 50h329zM156 620l-20 -190l-67 -60l-17 20l27 260z" />
    <glyph glyph-name="six" unicode="6" 
d="M393 400l35 -40l-44 -40h-260l-36 40l45 40h260zM447 350l18 -20l-29 -280q-14 -40 -55 -50l-22 80l22 210zM361 0h-300q-39 10 -45 50l83 30h240zM18 70l27 260l22 20l54 -60l-20 -190zM428 640h-269l-77 30q14 40 55 50h329zM156 620l-20 -190l-67 -60l-17 20l27 260z
" />
    <glyph glyph-name="seven" unicode="7" 
d="M447 350l18 -20l-29 -280q-14 -40 -55 -50l-22 80l22 210zM398 640h-239l-77 30q14 40 55 50h299zM156 620l-20 -190l-67 -60l-17 20l27 260zM396 430l22 210l38 80q39 -10 45 -50l-29 -280l-23 -20z" />
    <glyph glyph-name="eight" unicode="8" 
d="M393 400l35 -40l-44 -40h-260l-36 40l45 40h260zM447 350l18 -20l-29 -280q-14 -40 -55 -50l-22 80l22 210zM361 0h-300q-39 10 -45 50l83 30h240zM18 70l27 260l22 20l54 -60l-20 -190zM398 640h-239l-77 30q14 40 55 50h299zM156 620l-20 -190l-67 -60l-17 20l27 260z
M396 430l22 210l38 80q39 -10 45 -50l-29 -280l-23 -20z" />
    <glyph glyph-name="nine" unicode="9" 
d="M393 400l35 -40l-44 -40h-260l-36 40l45 40h260zM447 350l18 -20l-29 -280q-14 -40 -55 -50l-22 80l22 210zM361 0h-300q-39 10 -45 50l83 30h240zM398 640h-239l-77 30q14 40 55 50h299zM156 620l-20 -190l-67 -60l-17 20l27 260zM396 430l22 210l38 80q39 -10 45 -50
l-29 -280l-23 -20z" />
    <glyph glyph-name="colon" unicode=":" 
d="M277 160h-80l9 80h80zM311 480h-80l8 80h80z" />
    <glyph glyph-name="semicolon" unicode=";" 
d="M318 480h-80l9 80h80zM260 -80l-45 -40l-35 40l16 160h80z" />
    <glyph glyph-name="less" unicode="&#x3c;" 
d="M219 370h-110l221 200h40l26 -39zM360 189l-34 -39h-40l-179 200h110z" />
    <glyph glyph-name="equal" unicode="=" 
d="M401 480l36 -40l-44 -40h-260l-36 40l44 40h260zM384 319l36 -40l-44 -40h-260l-36 40l44 40h260z" />
    <glyph glyph-name="greater" unicode="&#x3e;" 
d="M126 531l34 39h40l179 -200h-110zM267 350h110l-221 -200h-40l-26 39z" />
    <glyph glyph-name="question" unicode="?" 
d="M393 400l35 -40l-44 -40h-260l-36 40l45 40h260zM27 160l18 170l22 20l54 -60l-14 -130h-80zM398 640h-239l-77 30q14 40 55 50h299zM396 430l22 210l38 80q39 -10 45 -50l-29 -280l-23 -20zM91 0h-80l8 80h80z" />
    <glyph glyph-name="at" unicode="@" 
d="M447 350l18 -20l-12 -120q-15 -40 -56 -50l-21 80l5 50zM361 0h-300q-39 10 -45 50l83 30h240zM18 70l27 260l22 20l54 -60l-20 -190zM398 640h-239l-77 30q14 40 55 50h299zM156 620l-20 -190l-67 -60l-17 20l27 260zM396 430l22 210l38 80q39 -10 45 -50l-29 -280
l-23 -20zM377 160l-140 -1q-39 10 -44 50l83 31h80zM195 230l10 100l22 20l54 -60l-3 -30zM299 460l-3 -30l-67 -60l-17 20l10 100zM381 480h-80l-77 31q14 40 56 50l109 -1z" />
    <glyph glyph-name="A" unicode="A" 
d="M393 400l35 -40l-44 -40h-260l-36 40l45 40h260zM447 350l18 -20l-29 -280q-14 -40 -55 -50l-22 80l22 210zM398 640h-239l-77 30q14 40 55 50h299zM156 620l-20 -190l-67 -60l-17 20l27 260zM396 430l22 210l38 80q39 -10 45 -50l-29 -280l-23 -20zM121 290l-22 -210
l-38 -80q-39 10 -45 50l29 280l22 20z" />
    <glyph glyph-name="B" unicode="B" 
d="M393 400l35 -40l-44 -40h-260l-36 40l45 40h260zM18 70l27 260l22 20l54 -60l-20 -190zM398 640h-240l-77 30l5 50h320l36 -40zM156 620l-20 -190l-67 -60l-17 20l27 260zM396 430l22 210l33 30l45 -50l-24 -230l-23 -20zM447 350l18 -20l-24 -230l-55 -50l-27 30l22 210
zM374 40l-44 -40h-319l5 50l83 30h239z" />
    <glyph glyph-name="C" unicode="C" 
d="M391 0h-330q-39 10 -45 50l83 30h270zM18 70l27 260l22 20l54 -60l-20 -190zM428 640h-269l-77 30q14 40 55 50h329zM156 620l-20 -190l-67 -60l-17 20l27 260z" />
    <glyph glyph-name="D" unicode="D" 
d="M18 70l27 260l22 20l54 -60l-20 -190zM398 640h-240l-77 30l5 50h320l36 -40zM156 620l-20 -190l-67 -60l-17 20l27 260zM396 430l22 210l33 30l45 -50l-24 -230l-23 -20zM447 350l18 -20l-24 -230l-55 -50l-27 30l22 210zM374 40l-44 -40h-319l5 50l83 30h239z" />
    <glyph glyph-name="E" unicode="E" 
d="M393 400l35 -40l-44 -40h-260l-36 40l45 40h260zM391 0h-330q-39 10 -45 50l83 30h270zM18 70l27 260l22 20l54 -60l-20 -190zM428 640h-269l-77 30q14 40 55 50h329zM156 620l-20 -190l-67 -60l-17 20l27 260z" />
    <glyph glyph-name="F" unicode="F" 
d="M393 400l35 -40l-44 -40h-260l-36 40l45 40h260zM428 640h-269l-77 30q14 40 55 50h329zM156 620l-20 -190l-67 -60l-17 20l27 260zM121 290l-22 -210l-38 -80q-39 10 -45 50l29 280l22 20z" />
    <glyph glyph-name="G" unicode="G" 
d="M393 400l35 -40l-44 -40h-90l-36 40l45 40h90zM447 350l18 -20l-29 -280q-14 -40 -55 -50l-22 80l22 210zM361 0h-300q-39 10 -45 50l83 30h240zM18 70l27 260l22 20l54 -60l-20 -190zM428 640h-269l-77 30q14 40 55 50h329zM156 620l-20 -190l-67 -60l-17 20l27 260z
" />
    <glyph glyph-name="H" unicode="H" 
d="M393 400l35 -40l-44 -40h-260l-36 40l45 40h260zM447 350l18 -20l-29 -280q-14 -40 -55 -50l-22 80l22 210zM396 430l22 210l38 80q39 -10 45 -50l-29 -280l-23 -20zM121 290l-22 -210l-38 -80q-39 10 -45 50l29 280l22 20zM68 360l-17 20l29 280q14 40 55 50l22 -80
l-22 -210z" />
    <glyph glyph-name="I" unicode="I" 
d="M216 430l22 210l38 80q39 -10 45 -50l-30 -280l-22 -20zM268 360l18 -20l-29 -280q-15 -40 -56 -50l-21 80l22 210z" />
    <glyph glyph-name="J" unicode="J" 
d="M447 350l18 -20l-29 -280q-14 -40 -55 -50l-22 80l22 210zM361 0h-300q-39 10 -45 50l83 30h240zM18 70l27 260l22 20l54 -60l-20 -190zM396 430l22 210l38 80q39 -10 45 -50l-29 -280l-23 -20z" />
    <glyph glyph-name="K" unicode="K" 
d="M393 400l35 -40l-44 -40h-260l-36 40l45 40h260zM447 350l18 -20l-29 -280q-14 -40 -55 -50l-22 80l22 210zM161 480l265 240q60 0 76 -40l-287 -260h-60zM121 290l-22 -210l-38 -80q-39 10 -45 50l29 280l22 20zM69 370l-17 20l29 280q14 40 55 50l22 -80l-22 -210z" />
    <glyph glyph-name="L" unicode="L" 
d="M121 290l-22 -210l-38 -80q-39 10 -45 50l29 280l22 20zM119 80h240l77 -30q-14 -40 -55 -50h-300zM69 370l-17 20l29 280q14 40 55 50l22 -80l-22 -210z" />
    <glyph glyph-name="M" unicode="M" 
d="M302 390l-45 -40l-35 40l24 230h80zM447 350l18 -20l-29 -280q-14 -40 -55 -50l-22 80l22 210zM398 640h-239l-77 30q14 40 55 50h299zM156 620l-20 -190l-67 -60l-17 20l27 260zM396 430l22 210l38 80q39 -10 45 -50l-29 -280l-23 -20zM121 290l-22 -210l-38 -80
q-39 10 -45 50l29 280l22 20z" />
    <glyph glyph-name="N" unicode="N" 
d="M121 290l-22 -210l-38 -80q-39 10 -45 50l30 280l22 20zM375 420h-70l-134 150l6 60h60l143 -160zM448 350l18 -20l-30 -280q-14 -40 -55 -50l-22 80l22 210zM395 420l22 210l38 80q39 -10 45 -50l-29 -280l-22 -20zM69 360l-18 20l29 280q14 40 55 50l22 -80l-22 -210z
" />
    <glyph glyph-name="O" unicode="O" 
d="M398 640h-220l-36 40l44 40h220l36 -40zM396 430l22 210l33 30l45 -50l-24 -230l-23 -20zM447 350l18 -20l-24 -230l-55 -50l-27 30l22 210zM69 370l-17 20l24 230l55 50l27 -30l-22 -210zM375 40l-44 -40h-220l-36 40l44 40h220zM121 290l-22 -210l-33 -30l-45 50
l24 230l22 20z" />
    <glyph glyph-name="P" unicode="P" 
d="M393 400l35 -40l-44 -40h-260l-36 40l45 40h260zM398 640h-240l-77 30l5 50h320l36 -40zM156 620l-20 -190l-67 -60l-17 20l27 260zM396 430l22 210l33 30l45 -50l-24 -230l-23 -20zM121 290l-22 -210l-38 -80q-39 10 -45 50l29 280l22 20z" />
    <glyph glyph-name="Q" unicode="Q" 
d="M448 350l18 -20l-26 -240l-71 80l12 120zM341 0h-280q-39 10 -45 50l83 30h170zM18 70l28 260l22 20l53 -60l-20 -190zM398 640h-239l-77 30q14 40 56 50h299zM156 620l-20 -190l-66 -60l-18 20l27 260zM396 430l22 210l39 80q38 -10 44 -50l-29 -280l-22 -20zM270 180
h60l116 -130l-6 -60h-60l-117 130z" />
    <glyph glyph-name="R" unicode="R" 
d="M393 400l35 -40l-44 -40h-260l-36 40l45 40h260zM142 300h60l233 -260q-24 -40 -84 -40l-215 240zM121 290l-22 -210l-38 -80q-39 10 -45 50l29 280l22 20zM398 640h-239l-77 30q14 40 55 50h299zM396 430l22 210l38 80q39 -10 45 -50l-29 -280l-23 -20zM156 620
l-20 -190l-67 -60l-17 20l27 260z" />
    <glyph glyph-name="S" unicode="S" 
d="M393 400l35 -40l-44 -40h-260l-36 40l45 40h260zM447 350l18 -20l-29 -280q-14 -40 -55 -50l-22 80l22 210zM361 0h-300q-39 10 -45 50l83 30h240zM156 620l-20 -190l-67 -60l-17 20l27 260zM159 640l-77 30q14 40 55 50h319q39 -10 45 -50l-83 -30h-259z" />
    <glyph glyph-name="T" unicode="T" 
d="M257 350l36 -40l-27 -260q-14 -40 -55 -50l-22 80l24 230zM224 410l22 210h80l-22 -210l-45 -40zM159 640l-77 30q14 40 55 50h319q39 -10 45 -50l-83 -30h-259z" />
    <glyph glyph-name="U" unicode="U" 
d="M447 350l18 -20l-29 -280q-14 -40 -55 -50l-22 80l22 210zM361 0h-300q-39 10 -45 50l83 30h240zM18 70l27 260l22 20l54 -60l-20 -190zM396 430l22 210l38 80q39 -10 45 -50l-29 -280l-23 -20zM68 360l-17 20l29 280q14 40 55 50l22 -80l-22 -210z" />
    <glyph glyph-name="V" unicode="V" 
d="M69 360l-18 20l29 280q14 40 55 50l22 -80l-22 -210zM395 420l22 210l38 80q39 -10 45 -50l-29 -280l-22 -20zM223 120l-12 -120l-173 260l6 60l23 20l53 -60zM380 280l67 60l17 -20l-6 -60l-227 -260l12 120z" />
    <glyph glyph-name="W" unicode="W" 
d="M271 100h-80l24 230l44 40l36 -40zM396 430l22 210l38 80q39 -10 45 -50l-29 -280l-23 -20zM361 0h-299q-39 10 -45 50l83 30h239zM18 70l27 260l22 20l54 -60l-20 -190zM447 350l18 -20l-29 -280q-14 -40 -55 -50l-22 80l22 210zM69 370l-17 20l29 280q14 40 55 50
l22 -80l-22 -210z" />
    <glyph glyph-name="X" unicode="X" 
d="M267 350h45l122 -310q-24 -40 -84 -40l-94 242zM282 478l144 242q60 0 76 -40l-187 -310h-45zM235 242l-144 -242q-60 0 -76 40l186 310h45zM249 370h-45l-121 310q24 40 84 40l94 -243z" />
    <glyph glyph-name="Y" unicode="Y" 
d="M393 400l35 -40l-44 -40h-260l-36 40l45 40h260zM447 350l18 -20l-29 -280q-14 -40 -55 -50l-22 80l22 210zM361 0h-300q-39 10 -45 50l83 30h240zM159 650l-23 -220l-67 -60l-17 20l30 290zM396 430l22 210l38 80q39 -10 45 -50l-29 -280l-23 -20z" />
    <glyph glyph-name="Z" unicode="Z" 
d="M391 0h-280l48 80h210zM358 640h-199l-77 30q14 40 55 50h269zM266 430l160 290q60 0 76 -40l-183 -310h-60zM261 290l-170 -290q-60 0 -76 40l192 310h60z" />
    <glyph glyph-name="bracketleft" unicode="[" 
d="M18 70l27 260l22 20l54 -60l-20 -190zM228 640h-69l-77 30q14 40 55 50h139l18 -20zM156 620l-20 -190l-67 -60l-17 20l27 260zM223 20l-22 -20h-139q-39 10 -45 50l83 30h69z" />
    <glyph glyph-name="backslash" unicode="\" 
d="M267 350h45l122 -310q-24 -40 -84 -40l-94 242zM249 370h-45l-121 310q24 40 84 40l94 -243z" />
    <glyph glyph-name="bracketright" unicode="]" 
d="M447 350l18 -20l-29 -280q-14 -40 -55 -50l-22 80l22 210zM398 640h-50l-54 60l22 20h120zM396 430l22 210l38 80q39 -10 45 -50l-29 -280l-23 -20zM361 0h-120l-18 20l66 60h50z" />
    <glyph glyph-name="asciicircum" unicode="^" 
d="M282 610l11 110l179 -200l-4 -40l-42 -30zM85 450l-36 30l4 40l221 200l-12 -110z" />
    <glyph glyph-name="underscore" unicode="_" 
d="M375 80l77 -30q-15 -40 -56 -50h-319q-39 10 -44 50l83 30h259z" />
    <glyph glyph-name="grave" unicode="`" 
d="M359 610l-4 -40l-41 -10l-125 140l14 40h40z" />
    <glyph glyph-name="a" unicode="a" 
d="M393 400l35 -40l-44 -40h-260l-36 40l45 40h260zM447 350l18 -20l-29 -280q-14 -40 -55 -50l-22 80l22 210zM398 640h-239l-77 30q14 40 55 50h299zM156 620l-20 -190l-67 -60l-17 20l27 260zM396 430l22 210l38 80q39 -10 45 -50l-29 -280l-23 -20zM121 290l-22 -210
l-38 -80q-39 10 -45 50l29 280l22 20z" />
    <glyph glyph-name="b" unicode="b" 
d="M393 400l35 -40l-44 -40h-260l-36 40l45 40h260zM18 70l27 260l22 20l54 -60l-20 -190zM398 640h-240l-77 30l5 50h320l36 -40zM156 620l-20 -190l-67 -60l-17 20l27 260zM396 430l22 210l33 30l45 -50l-24 -230l-23 -20zM447 350l18 -20l-24 -230l-55 -50l-27 30l22 210
zM374 40l-44 -40h-319l5 50l83 30h239z" />
    <glyph glyph-name="c" unicode="c" 
d="M391 0h-330q-39 10 -45 50l83 30h270zM18 70l27 260l22 20l54 -60l-20 -190zM428 640h-269l-77 30q14 40 55 50h329zM156 620l-20 -190l-67 -60l-17 20l27 260z" />
    <glyph glyph-name="d" unicode="d" 
d="M18 70l27 260l22 20l54 -60l-20 -190zM398 640h-240l-77 30l5 50h320l36 -40zM156 620l-20 -190l-67 -60l-17 20l27 260zM396 430l22 210l33 30l45 -50l-24 -230l-23 -20zM447 350l18 -20l-24 -230l-55 -50l-27 30l22 210zM374 40l-44 -40h-319l5 50l83 30h239z" />
    <glyph glyph-name="e" unicode="e" 
d="M393 400l35 -40l-44 -40h-260l-36 40l45 40h260zM391 0h-330q-39 10 -45 50l83 30h270zM18 70l27 260l22 20l54 -60l-20 -190zM428 640h-269l-77 30q14 40 55 50h329zM156 620l-20 -190l-67 -60l-17 20l27 260z" />
    <glyph glyph-name="f" unicode="f" 
d="M393 400l35 -40l-44 -40h-260l-36 40l45 40h260zM428 640h-269l-77 30q14 40 55 50h329zM156 620l-20 -190l-67 -60l-17 20l27 260zM121 290l-22 -210l-38 -80q-39 10 -45 50l29 280l22 20z" />
    <glyph glyph-name="g" unicode="g" 
d="M393 400l35 -40l-44 -40h-90l-36 40l45 40h90zM447 350l18 -20l-29 -280q-14 -40 -55 -50l-22 80l22 210zM361 0h-300q-39 10 -45 50l83 30h240zM18 70l27 260l22 20l54 -60l-20 -190zM428 640h-269l-77 30q14 40 55 50h329zM156 620l-20 -190l-67 -60l-17 20l27 260z
" />
    <glyph glyph-name="h" unicode="h" 
d="M393 400l35 -40l-44 -40h-260l-36 40l45 40h260zM447 350l18 -20l-29 -280q-14 -40 -55 -50l-22 80l22 210zM396 430l22 210l38 80q39 -10 45 -50l-29 -280l-23 -20zM121 290l-22 -210l-38 -80q-39 10 -45 50l29 280l22 20zM68 360l-17 20l29 280q14 40 55 50l22 -80
l-22 -210z" />
    <glyph glyph-name="i" unicode="i" 
d="M216 430l22 210l38 80q39 -10 45 -50l-30 -280l-22 -20zM268 360l18 -20l-29 -280q-15 -40 -56 -50l-21 80l22 210z" />
    <glyph glyph-name="j" unicode="j" 
d="M447 350l18 -20l-29 -280q-14 -40 -55 -50l-22 80l22 210zM361 0h-300q-39 10 -45 50l83 30h240zM18 70l27 260l22 20l54 -60l-20 -190zM396 430l22 210l38 80q39 -10 45 -50l-29 -280l-23 -20z" />
    <glyph glyph-name="k" unicode="k" 
d="M393 400l35 -40l-44 -40h-260l-36 40l45 40h260zM447 350l18 -20l-29 -280q-14 -40 -55 -50l-22 80l22 210zM161 480l265 240q60 0 76 -40l-287 -260h-60zM121 290l-22 -210l-38 -80q-39 10 -45 50l29 280l22 20zM69 370l-17 20l29 280q14 40 55 50l22 -80l-22 -210z" />
    <glyph glyph-name="l" unicode="l" 
d="M121 290l-22 -210l-38 -80q-39 10 -45 50l29 280l22 20zM119 80h240l77 -30q-14 -40 -55 -50h-300zM69 370l-17 20l29 280q14 40 55 50l22 -80l-22 -210z" />
    <glyph glyph-name="m" unicode="m" 
d="M302 390l-45 -40l-35 40l24 230h80zM447 350l18 -20l-29 -280q-14 -40 -55 -50l-22 80l22 210zM398 640h-239l-77 30q14 40 55 50h299zM156 620l-20 -190l-67 -60l-17 20l27 260zM396 430l22 210l38 80q39 -10 45 -50l-29 -280l-23 -20zM121 290l-22 -210l-38 -80
q-39 10 -45 50l29 280l22 20z" />
    <glyph glyph-name="n" unicode="n" 
d="M121 290l-22 -210l-38 -80q-39 10 -45 50l30 280l22 20zM375 420h-70l-134 150l6 60h60l143 -160zM448 350l18 -20l-30 -280q-14 -40 -55 -50l-22 80l22 210zM395 420l22 210l38 80q39 -10 45 -50l-29 -280l-22 -20zM69 360l-18 20l29 280q14 40 55 50l22 -80l-22 -210z
" />
    <glyph glyph-name="o" unicode="o" 
d="M398 640h-220l-36 40l44 40h220l36 -40zM396 430l22 210l33 30l45 -50l-24 -230l-23 -20zM447 350l18 -20l-24 -230l-55 -50l-27 30l22 210zM69 370l-17 20l24 230l55 50l27 -30l-22 -210zM375 40l-44 -40h-220l-36 40l44 40h220zM121 290l-22 -210l-33 -30l-45 50
l24 230l22 20z" />
    <glyph glyph-name="p" unicode="p" 
d="M393 400l35 -40l-44 -40h-260l-36 40l45 40h260zM398 640h-240l-77 30l5 50h320l36 -40zM156 620l-20 -190l-67 -60l-17 20l27 260zM396 430l22 210l33 30l45 -50l-24 -230l-23 -20zM121 290l-22 -210l-38 -80q-39 10 -45 50l29 280l22 20z" />
    <glyph glyph-name="q" unicode="q" 
d="M448 350l18 -20l-26 -240l-71 80l12 120zM341 0h-280q-39 10 -45 50l83 30h170zM18 70l28 260l22 20l53 -60l-20 -190zM398 640h-239l-77 30q14 40 56 50h299zM156 620l-20 -190l-66 -60l-18 20l27 260zM396 430l22 210l39 80q38 -10 44 -50l-29 -280l-22 -20zM270 180
h60l116 -130l-6 -60h-60l-117 130z" />
    <glyph glyph-name="r" unicode="r" 
d="M393 400l35 -40l-44 -40h-260l-36 40l45 40h260zM142 300h60l233 -260q-24 -40 -84 -40l-215 240zM121 290l-22 -210l-38 -80q-39 10 -45 50l29 280l22 20zM398 640h-239l-77 30q14 40 55 50h299zM396 430l22 210l38 80q39 -10 45 -50l-29 -280l-23 -20zM156 620
l-20 -190l-67 -60l-17 20l27 260z" />
    <glyph glyph-name="s" unicode="s" 
d="M393 400l35 -40l-44 -40h-260l-36 40l45 40h260zM447 350l18 -20l-29 -280q-14 -40 -55 -50l-22 80l22 210zM361 0h-300q-39 10 -45 50l83 30h240zM156 620l-20 -190l-67 -60l-17 20l27 260zM159 640l-77 30q14 40 55 50h319q39 -10 45 -50l-83 -30h-259z" />
    <glyph glyph-name="t" unicode="t" 
d="M257 350l36 -40l-27 -260q-14 -40 -55 -50l-22 80l24 230zM224 410l22 210h80l-22 -210l-45 -40zM159 640l-77 30q14 40 55 50h319q39 -10 45 -50l-83 -30h-259z" />
    <glyph glyph-name="u" unicode="u" 
d="M447 350l18 -20l-29 -280q-14 -40 -55 -50l-22 80l22 210zM361 0h-300q-39 10 -45 50l83 30h240zM18 70l27 260l22 20l54 -60l-20 -190zM396 430l22 210l38 80q39 -10 45 -50l-29 -280l-23 -20zM68 360l-17 20l29 280q14 40 55 50l22 -80l-22 -210z" />
    <glyph glyph-name="v" unicode="v" 
d="M69 360l-18 20l29 280q14 40 55 50l22 -80l-22 -210zM395 420l22 210l38 80q39 -10 45 -50l-29 -280l-22 -20zM223 120l-12 -120l-173 260l6 60l23 20l53 -60zM380 280l67 60l17 -20l-6 -60l-227 -260l12 120z" />
    <glyph glyph-name="w" unicode="w" 
d="M271 100h-80l24 230l44 40l36 -40zM396 430l22 210l38 80q39 -10 45 -50l-29 -280l-23 -20zM361 0h-299q-39 10 -45 50l83 30h239zM18 70l27 260l22 20l54 -60l-20 -190zM447 350l18 -20l-29 -280q-14 -40 -55 -50l-22 80l22 210zM69 370l-17 20l29 280q14 40 55 50
l22 -80l-22 -210z" />
    <glyph glyph-name="x" unicode="x" 
d="M267 350h45l122 -310q-24 -40 -84 -40l-94 242zM282 478l144 242q60 0 76 -40l-187 -310h-45zM235 242l-144 -242q-60 0 -76 40l186 310h45zM249 370h-45l-121 310q24 40 84 40l94 -243z" />
    <glyph glyph-name="y" unicode="y" 
d="M393 400l35 -40l-44 -40h-260l-36 40l45 40h260zM447 350l18 -20l-29 -280q-14 -40 -55 -50l-22 80l22 210zM361 0h-300q-39 10 -45 50l83 30h240zM159 650l-23 -220l-67 -60l-17 20l30 290zM396 430l22 210l38 80q39 -10 45 -50l-29 -280l-23 -20z" />
    <glyph glyph-name="z" unicode="z" 
d="M391 0h-280l48 80h210zM358 640h-199l-77 30q14 40 55 50h269zM266 430l160 290q60 0 76 -40l-183 -310h-60zM261 290l-170 -290q-60 0 -76 40l192 310h60z" />
    <glyph glyph-name="braceleft" unicode="{" 
d="M128 70l23 220l66 60l18 -20l-24 -230zM338 640h-69l-77 30q14 40 55 50h139l18 -20zM266 620l-24 -230l-23 -20l-53 60l23 220zM333 20l-22 -20h-139q-39 10 -45 50l83 30h69zM153 400l35 -40l-44 -40h-70l-36 40l45 40h70z" />
    <glyph glyph-name="bar" unicode="|" 
d="M96 50q-14 -40 -55 -50l-22 80l59 560l38 80q39 -10 45 -50z" />
    <glyph glyph-name="braceright" unicode="}" 
d="M191 100l24 230l22 20l54 -60l-23 -220zM124 700l22 20h139q39 -10 45 -50l-83 -30h-69zM329 650l-23 -220l-67 -60l-17 20l24 230zM119 80h69l77 -30q-14 -40 -55 -50h-139l-18 20zM383 400l35 -40l-44 -40h-70l-36 40l45 40h70z" />
    <glyph glyph-name="asciitilde" unicode="~" 
d="M287 480l36 -40l-44 -40h-40l-36 40l44 40h40zM127 479l36 -40l-44 -40h-40l-36 40l44 40h40zM447 480l36 -40l-44 -40h-40l-36 40l44 40h40zM213 540l36 -40l-44 -40h-40l-36 40l44 40h40zM360 410l36 -40l-45 -40h-40l-35 40l44 40h40z" />
    <glyph glyph-name="perthousand" unicode="&#x2030;" 
d="M242 399l-177 -159q-60 -1 -53 59l209 190h30zM128 640h-10l-77 30q14 40 55 50h70zM116 620l-7 -60l-38 -80q-39 10 -45 50l13 120zM129 560h10l77 -30q-14 -40 -55 -50h-70zM142 580l6 60l38 80q39 -10 45 -50l-13 -120zM377 160h-10l-76 30q14 40 55 50h70zM366 140
l-6 -60l-38 -80q-39 10 -45 50l13 120zM379 80h10l77 -30q-14 -40 -55 -50h-70zM391 100l6 60l39 80q39 -10 45 -50l-13 -120zM161 100l6 60l39 80q39 -10 45 -50l-13 -120zM149 79h10l77 -30q-14 -40 -55 -50h-70zM135 140l-6 -60l-38 -80q-39 10 -45 50l13 120zM147 160
h-10l-76 30q14 40 55 50h70zM266 531l177 159q60 1 53 -59l-209 -191l-30 1z" />
    <glyph glyph-name="quoteleft" unicode="&#x2018;" 
d="M312 520h-80l16 160l45 40l35 -40z" />
    <glyph glyph-name="quoteright" unicode="&#x2019;" 
d="M316 560l-44 -40l-36 40l17 160h80z" />
    <glyph glyph-name="quotedblleft" unicode="&#x201c;" 
d="M232 521h-80l16 160l45 40l35 -40zM392 520h-80l16 160l45 40l35 -40z" />
    <glyph glyph-name="quotedblright" unicode="&#x201d;" 
d="M236 560l-44 -40l-36 40l17 160h80zM397 561l-44 -40l-36 40l17 160h80z" />
    <glyph glyph-name="bullet" unicode="&#x2022;" 
d="M238 220q-60 0 -98 42.5t-31 102.5q6 60 53 102.5t107 42.5t98 -42.5t32 -102.5q-7 -60 -54 -102.5t-107 -42.5z" />
    <glyph glyph-name="endash" unicode="&#x2013;" 
d="M443 400l35 -40l-44 -40h-360l-36 40l45 40h360z" />
    <glyph glyph-name="emdash" unicode="&#x2014;" 
d="M463 400l35 -40l-44 -40h-400l-36 40l45 40h400z" />
    <glyph glyph-name="copyright" unicode="&#xa9;" 
d="M381 0h-360q-38 10 -44 50l82 30h300zM418 640h-299l-77 30q14 40 55 50h359zM61 100l-82 -30l60 580l77 -30zM456 50q-14 -40 -55 -50l-22 80l59 560l38 80q39 -10 45 -50zM351 480h-130l-77 30q14 40 55 50h190zM219 460l-23 -220l-39 -80q-39 10 -44 50l29 280z
M216 240h60l77 -30q-15 -40 -56 -50h-120z" />
  </font>
</defs>
</svg>
