<?xml version="1.0" encoding="iso-8859-1"?>
<!-- Generator: Adobe Illustrator 18.1.0, SVG Export Plug-In . SVG Version: 6.00 Build 0)  -->
<svg version="1.1" xmlns="http://www.w3.org/2000/svg" xmlns:xlink="http://www.w3.org/1999/xlink" x="0px" y="0px"
	 viewBox="0 0 80 520" style="enable-background:new 0 0 80 520;" xml:space="preserve">
<g id="Layer_2" style="display:none;">
	
		<image style="display:inline;overflow:visible;" width="1347" height="305" xlink:href="../algorithms.png"  transform="matrix(2.4473 0 0 2.4473 -2065.5459 495.4146)">
	</image>
	<rect x="-2009" y="-21" style="display:inline;fill:#333333;" width="3204" height="575"/>
</g>
<g id="Layer_1">
	<g>
		<path style="fill:#BFBFBF;" d="M55,20v23H32V20H55 M57,18H30v27h27V18L57,18z"/>
	</g>
	<g>
		<path style="fill:#BFBFBF;" d="M45.231,27.997c0-0.205-0.079-0.431-0.237-0.677c-0.27-0.398-0.677-0.598-1.222-0.598
			c-0.814,0-1.395,0.457-1.74,1.371c-0.188,0.504-0.316,1.248-0.387,2.232c0.311-0.369,0.671-0.639,1.081-0.809
			s0.879-0.255,1.406-0.255c1.131,0,2.058,0.384,2.782,1.151S48,32.163,48,33.358c0,1.189-0.354,2.238-1.063,3.146
			s-1.811,1.362-3.305,1.362c-1.605,0-2.789-0.671-3.551-2.013c-0.592-1.049-0.888-2.402-0.888-4.061
			c0-0.973,0.041-1.764,0.123-2.373c0.146-1.084,0.431-1.986,0.853-2.707c0.363-0.615,0.839-1.11,1.428-1.485
			s1.293-0.562,2.114-0.562c1.184,0,2.127,0.303,2.83,0.91s1.099,1.414,1.187,2.421H45.231z M42.261,35.178
			c0.369,0.434,0.838,0.65,1.406,0.65c0.557,0,0.995-0.209,1.314-0.628s0.479-0.962,0.479-1.63c0-0.744-0.182-1.314-0.545-1.709
			s-0.809-0.593-1.336-0.593c-0.428,0-0.806,0.129-1.134,0.387c-0.492,0.381-0.738,0.996-0.738,1.846
			C41.707,34.185,41.892,34.744,42.261,35.178z"/>
	</g>
	<g>
		<g>
			<line style="fill:none;stroke:#BFBFBF;stroke-width:2;stroke-miterlimit:10;" x1="52" y1="204" x2="52" y2="493"/>
			<g>
				<polygon style="fill:#BFBFBF;" points="48.011,492 52,498.908 55.989,492 				"/>
			</g>
		</g>
	</g>
	<g>
		<g>
			<line style="fill:none;stroke:#BFBFBF;stroke-width:2;stroke-miterlimit:10;" x1="65" y1="123" x2="65" y2="493"/>
			<g>
				<polygon style="fill:#BFBFBF;" points="61.011,492 65,498.908 68.989,492 				"/>
			</g>
		</g>
	</g>
	<g>
		<g>
			<line style="fill:none;stroke:#BFBFBF;stroke-width:2;stroke-miterlimit:10;" x1="37" y1="45" x2="37" y2="172"/>
			<g>
				<polygon style="fill:#BFBFBF;" points="33.011,171 37,177.908 40.989,171 				"/>
			</g>
		</g>
	</g>
	<g>
		<g>
			<line style="fill:none;stroke:#BFBFBF;stroke-width:2;stroke-miterlimit:10;" x1="51" y1="45" x2="51" y2="92"/>
			<g>
				<polygon style="fill:#BFBFBF;" points="47.011,91 51,97.908 54.989,91 				"/>
			</g>
		</g>
	</g>
	<g>
		<g>
			<polygon style="fill:#BFBFBF;" points="45,193 45,187.809 41.833,193 			"/>
		</g>
		<g>
			<path style="fill:#BFBFBF;" d="M31,178v27h27v-27H31z M48.908,195.258h-1.441V198h-2.452v-2.742h-5.045v-2.188l4.685-7.734h2.812
				v7.963h1.441V195.258z"/>
		</g>
	</g>
	<g>
		<path style="fill:#BFBFBF;" d="M45,98v27h27V98H45z M61.643,116.945c-0.755,0.926-1.885,1.389-3.389,1.389
			c-1.211,0-2.207-0.325-2.985-0.976c-0.778-0.65-1.211-1.573-1.299-2.769h2.496c0.099,0.545,0.289,0.965,0.57,1.262
			c0.281,0.295,0.69,0.443,1.228,0.443c0.62,0,1.092-0.219,1.416-0.654c0.325-0.438,0.487-0.986,0.487-1.648
			c0-0.65-0.152-1.199-0.456-1.648c-0.304-0.447-0.777-0.672-1.42-0.672c-0.304,0-0.567,0.038-0.789,0.114
			c-0.392,0.141-0.687,0.401-0.886,0.782l-2.246-0.105l0.895-7.04h7.012v2.127H57.07l-0.456,2.786
			c0.386-0.252,0.688-0.419,0.904-0.501c0.363-0.135,0.804-0.202,1.325-0.202c1.053,0,1.972,0.354,2.756,1.063
			s1.176,1.74,1.176,3.094C62.776,114.968,62.398,116.02,61.643,116.945z"/>
	</g>
	<g>
		<g>
			<polyline style="fill:none;stroke:#BFBFBF;stroke-width:2;stroke-miterlimit:10;" points="26,296 6,296 6,246 26,246 26,252 			
				"/>
			<g>
				<polygon style="fill:#BFBFBF;" points="22.011,251 26,257.908 29.989,251 				"/>
			</g>
		</g>
	</g>
	<g>
		<path style="fill:#BFBFBF;" d="M30,445v-27H3v27H30z M18.257,437.744h-2.566v-8.789h-2.997v-1.705
			c0.789-0.035,1.341-0.088,1.657-0.158c0.503-0.111,0.912-0.334,1.228-0.668c0.216-0.229,0.38-0.533,0.491-0.914
			c0.064-0.229,0.096-0.398,0.096-0.51h2.092V437.744z"/>
	</g>
	<g>
		<g>
			<line style="fill:none;stroke:#BFBFBF;stroke-width:2;stroke-miterlimit:10;" x1="38" y1="364" x2="38" y2="493"/>
			<g>
				<polygon style="fill:#BFBFBF;" points="34.011,492 38,498.908 41.989,492 				"/>
			</g>
		</g>
	</g>
	<g>
		<g>
			<line style="fill:none;stroke:#BFBFBF;stroke-width:2;stroke-miterlimit:10;" x1="27" y1="285" x2="27" y2="333"/>
			<g>
				<polygon style="fill:#BFBFBF;" points="23.011,332 27,338.908 30.989,332 				"/>
			</g>
		</g>
	</g>
	<g>
		<g>
			<line style="fill:none;stroke:#BFBFBF;stroke-width:2;stroke-miterlimit:10;" x1="21" y1="445" x2="21" y2="493.259"/>
			<g>
				<polygon style="fill:#BFBFBF;" points="17.011,492.092 21,499 24.989,492.092 				"/>
			</g>
		</g>
	</g>
	<polygon style="fill:none;stroke:#BFBFBF;stroke-width:2;stroke-miterlimit:10;" points="69.553,500 41,518 12.447,500 	"/>
	<g>
		<g>
			<path style="fill:#BFBFBF;" d="M38,260v23H15v-23H38 M40,258H13v27h27V258L40,258z"/>
		</g>
		<g>
			<path style="fill:#BFBFBF;" d="M24.43,274.089c0,0.51,0.082,0.932,0.246,1.266c0.304,0.615,0.855,0.923,1.657,0.923
				c0.491,0,0.919-0.168,1.284-0.506c0.365-0.336,0.549-0.821,0.549-1.454c0-0.838-0.34-1.397-1.018-1.679
				c-0.385-0.158-0.992-0.237-1.822-0.237v-1.793c0.812-0.012,1.379-0.091,1.699-0.237c0.555-0.246,0.832-0.744,0.832-1.494
				c0-0.486-0.141-0.882-0.425-1.187c-0.283-0.305-0.683-0.457-1.196-0.457c-0.59,0-1.024,0.188-1.302,0.562
				c-0.278,0.375-0.411,0.876-0.399,1.503h-2.338c0.023-0.633,0.133-1.233,0.325-1.802c0.205-0.498,0.526-0.958,0.966-1.38
				c0.328-0.299,0.717-0.527,1.168-0.686c0.45-0.158,1.004-0.237,1.659-0.237c1.218,0,2.199,0.315,2.946,0.944
				c0.746,0.631,1.119,1.476,1.119,2.536c0,0.75-0.223,1.383-0.668,1.898c-0.281,0.322-0.574,0.542-0.879,0.659
				c0.229,0,0.557,0.196,0.984,0.589c0.639,0.592,0.957,1.4,0.957,2.426c0,1.078-0.373,2.026-1.119,2.843
				c-0.746,0.818-1.852,1.227-3.314,1.227c-1.803,0-3.056-0.589-3.758-1.767c-0.369-0.627-0.574-1.447-0.615-2.461H24.43z"/>
		</g>
	</g>
	<g>
		<path style="fill:#BFBFBF;" d="M18,338v27h27v-27H18z M35.785,358h-8.728c0.023-0.914,0.22-1.749,0.589-2.505
			c0.357-0.85,1.201-1.749,2.531-2.698c1.154-0.826,1.901-1.418,2.241-1.775c0.521-0.557,0.782-1.166,0.782-1.828
			c0-0.539-0.149-0.987-0.448-1.345s-0.727-0.536-1.283-0.536c-0.762,0-1.28,0.284-1.556,0.853c-0.158,0.328-0.252,0.85-0.281,1.564
			h-2.435c0.041-1.084,0.237-1.96,0.589-2.628c0.669-1.271,1.856-1.907,3.563-1.907c1.349,0,2.422,0.374,3.22,1.121
			c0.798,0.747,1.197,1.736,1.197,2.966c0,0.943-0.282,1.781-0.845,2.514c-0.37,0.486-0.978,1.028-1.823,1.626l-1.004,0.712
			c-0.628,0.445-1.058,0.768-1.29,0.967s-0.426,0.431-0.584,0.694h5.563V358z"/>
	</g>
	<g>
		<g>
			<polyline style="fill:none;stroke:#BFBFBF;stroke-width:2;stroke-miterlimit:10;" points="27,310 11,326 11,412.259 			"/>
			<g>
				<polygon style="fill:#BFBFBF;" points="7.011,411.092 11,418 14.989,411.092 				"/>
			</g>
		</g>
	</g>
</g>
</svg>
