<?xml version="1.0" encoding="iso-8859-1"?>
<!-- Generator: Adobe Illustrator 18.1.0, SVG Export Plug-In . SVG Version: 6.00 Build 0)  -->
<svg version="1.1" xmlns="http://www.w3.org/2000/svg" xmlns:xlink="http://www.w3.org/1999/xlink" x="0px" y="0px"
	 viewBox="0 0 80 520" style="enable-background:new 0 0 80 520;" xml:space="preserve">
<g id="Layer_2" style="display:none;">
	
		<image style="display:inline;overflow:visible;" width="1347" height="305" xlink:href="../algorithms.png"  transform="matrix(2.4473 0 0 2.4473 -2865.5459 495.4146)">
	</image>
	<rect x="-2809" y="-21" style="display:inline;fill:#333333;" width="3204" height="575"/>
</g>
<g id="Layer_1">
	<g>
		<g>
			<path style="fill:#BFBFBF;" d="M55,181v23H32v-23H55 M57,179H30v27h27V179L57,179z"/>
		</g>
		<g>
			<path style="fill:#BFBFBF;" d="M48.031,195.923h-1.441v2.742h-2.452v-2.742h-5.045v-2.188L43.777,186h2.812v7.963h1.441V195.923z
				 M44.137,193.963v-5.489l-3.181,5.489H44.137z"/>
		</g>
	</g>
	<g>
		<g>
			<line style="fill:none;stroke:#BFBFBF;stroke-width:2;stroke-miterlimit:10;" x1="44" y1="205" x2="44" y2="253"/>
			<g>
				<polygon style="fill:#BFBFBF;" points="40.011,252 44,258.908 47.989,252 				"/>
			</g>
		</g>
	</g>
	<g>
		<g>
			<line style="fill:none;stroke:#BFBFBF;stroke-width:2;stroke-miterlimit:10;" x1="53" y1="45" x2="53" y2="92"/>
			<g>
				<polygon style="fill:#BFBFBF;" points="49.011,91 53,97.908 56.989,91 				"/>
			</g>
		</g>
	</g>
	<g>
		<path style="fill:#BFBFBF;" d="M65,20v23H42V20H65 M67,18H40v27h27V18L67,18z"/>
	</g>
	<g>
		<path style="fill:#BFBFBF;" d="M55.231,27.997c0-0.205-0.079-0.431-0.237-0.677c-0.27-0.398-0.677-0.598-1.222-0.598
			c-0.814,0-1.395,0.457-1.74,1.371c-0.188,0.504-0.316,1.248-0.387,2.232c0.311-0.369,0.671-0.639,1.081-0.809
			s0.879-0.255,1.406-0.255c1.131,0,2.058,0.384,2.782,1.151S58,32.163,58,33.358c0,1.189-0.354,2.238-1.063,3.146
			s-1.811,1.362-3.305,1.362c-1.605,0-2.789-0.671-3.551-2.013c-0.592-1.049-0.888-2.402-0.888-4.061
			c0-0.973,0.041-1.764,0.123-2.373c0.146-1.084,0.431-1.986,0.853-2.707c0.363-0.615,0.839-1.11,1.428-1.485
			s1.293-0.562,2.114-0.562c1.184,0,2.127,0.303,2.83,0.91s1.099,1.414,1.187,2.421H55.231z M52.261,35.178
			c0.369,0.434,0.838,0.65,1.406,0.65c0.557,0,0.995-0.209,1.314-0.628s0.479-0.962,0.479-1.63c0-0.744-0.182-1.314-0.545-1.709
			s-0.809-0.593-1.336-0.593c-0.428,0-0.806,0.129-1.134,0.387c-0.492,0.381-0.738,0.996-0.738,1.846
			C51.707,34.185,51.892,34.744,52.261,35.178z"/>
	</g>
	<g>
		<g>
			<polyline style="fill:none;stroke:#BFBFBF;stroke-width:2;stroke-miterlimit:10;" points="53,56 33,56 33,6 53,6 53,12.259 			
				"/>
			<g>
				<polygon style="fill:#BFBFBF;" points="49.011,11.092 53,18 56.989,11.092 				"/>
			</g>
		</g>
	</g>
	<g>
		<path style="fill:#BFBFBF;" d="M57,285v-27H30v27H57z M46.911,276.58c-0.746,0.817-1.851,1.226-3.314,1.226
			c-1.803,0-3.056-0.589-3.758-1.767c-0.369-0.627-0.574-1.447-0.615-2.461h2.461c0,0.51,0.082,0.932,0.246,1.266
			c0.304,0.615,0.856,0.923,1.657,0.923c0.491,0,0.919-0.168,1.285-0.505c0.365-0.337,0.548-0.822,0.548-1.455
			c0-0.838-0.339-1.397-1.017-1.679c-0.385-0.158-0.993-0.237-1.822-0.237v-1.793c0.812-0.012,1.378-0.091,1.699-0.237
			c0.555-0.246,0.832-0.744,0.832-1.494c0-0.486-0.142-0.882-0.425-1.187c-0.283-0.305-0.682-0.457-1.196-0.457
			c-0.59,0-1.024,0.188-1.302,0.562c-0.278,0.375-0.411,0.876-0.399,1.503h-2.338c0.023-0.633,0.132-1.233,0.325-1.802
			c0.205-0.498,0.527-0.958,0.966-1.38c0.328-0.299,0.717-0.527,1.167-0.686s1.004-0.237,1.66-0.237
			c1.217,0,2.199,0.315,2.946,0.945c0.746,0.63,1.119,1.475,1.119,2.536c0,0.75-0.223,1.383-0.668,1.898
			c-0.281,0.322-0.574,0.542-0.879,0.659c0.229,0,0.557,0.196,0.984,0.589c0.639,0.592,0.958,1.4,0.958,2.426
			C48.031,274.814,47.658,275.762,46.911,276.58z"/>
	</g>
	<g>
		<path style="fill:#BFBFBF;" d="M39,445v-27H12v27H39z M27.257,437.744h-2.566v-8.789h-2.997v-1.705
			c0.789-0.035,1.341-0.088,1.657-0.158c0.503-0.111,0.912-0.334,1.228-0.668c0.216-0.229,0.38-0.533,0.491-0.914
			c0.064-0.229,0.096-0.398,0.096-0.51h2.092V437.744z"/>
	</g>
	<g>
		<g>
			<line style="fill:none;stroke:#BFBFBF;stroke-width:2;stroke-miterlimit:10;" x1="62" y1="123" x2="62" y2="493"/>
			<g>
				<polygon style="fill:#BFBFBF;" points="58.011,492 62,498.908 65.989,492 				"/>
			</g>
		</g>
	</g>
	<g>
		<g>
			<line style="fill:none;stroke:#BFBFBF;stroke-width:2;stroke-miterlimit:10;" x1="44" y1="364" x2="44" y2="493"/>
			<g>
				<polygon style="fill:#BFBFBF;" points="40.011,492 44,498.908 47.989,492 				"/>
			</g>
		</g>
	</g>
	<g>
		<g>
			<line style="fill:none;stroke:#BFBFBF;stroke-width:2;stroke-miterlimit:10;" x1="53" y1="285" x2="53" y2="493"/>
			<g>
				<polygon style="fill:#BFBFBF;" points="49.011,492 53,498.908 56.989,492 				"/>
			</g>
		</g>
	</g>
	<g>
		<g>
			<line style="fill:none;stroke:#BFBFBF;stroke-width:2;stroke-miterlimit:10;" x1="35" y1="445" x2="35" y2="493.259"/>
			<g>
				<polygon style="fill:#BFBFBF;" points="31.011,492.092 35,499 38.989,492.092 				"/>
			</g>
		</g>
	</g>
	<polygon style="fill:none;stroke:#BFBFBF;stroke-width:2;stroke-miterlimit:10;" points="69.553,500 41,518 12.447,500 	"/>
	<g>
		<path style="fill:#BFBFBF;" d="M39,98v27h27V98H39z M55.643,116.945c-0.755,0.926-1.885,1.389-3.389,1.389
			c-1.211,0-2.207-0.325-2.985-0.976c-0.778-0.65-1.211-1.573-1.299-2.769h2.496c0.099,0.545,0.289,0.965,0.57,1.262
			c0.281,0.295,0.69,0.443,1.228,0.443c0.62,0,1.092-0.219,1.416-0.654c0.325-0.438,0.487-0.986,0.487-1.648
			c0-0.65-0.152-1.199-0.456-1.648c-0.304-0.447-0.777-0.672-1.42-0.672c-0.304,0-0.567,0.038-0.789,0.114
			c-0.392,0.141-0.687,0.401-0.886,0.782l-2.246-0.105l0.895-7.04h7.012v2.127H51.07l-0.456,2.786
			c0.386-0.252,0.688-0.419,0.904-0.501c0.363-0.135,0.804-0.202,1.325-0.202c1.053,0,1.972,0.354,2.756,1.063
			s1.176,1.74,1.176,3.094C56.776,114.968,56.398,116.02,55.643,116.945z"/>
	</g>
	<g>
		<path style="fill:#BFBFBF;" d="M21,338v27h27v-27H21z M38.785,358h-8.728c0.023-0.914,0.22-1.749,0.589-2.505
			c0.357-0.85,1.201-1.749,2.531-2.698c1.154-0.826,1.901-1.418,2.241-1.775c0.521-0.557,0.782-1.166,0.782-1.828
			c0-0.539-0.149-0.987-0.448-1.345s-0.727-0.536-1.283-0.536c-0.762,0-1.28,0.284-1.556,0.853c-0.158,0.328-0.252,0.85-0.281,1.564
			h-2.435c0.041-1.084,0.237-1.96,0.589-2.628c0.669-1.271,1.856-1.907,3.563-1.907c1.349,0,2.422,0.374,3.22,1.121
			c0.798,0.747,1.197,1.736,1.197,2.966c0,0.943-0.282,1.781-0.845,2.514c-0.37,0.486-0.978,1.028-1.823,1.626l-1.004,0.712
			c-0.628,0.445-1.058,0.768-1.29,0.967s-0.426,0.431-0.584,0.694h5.563V358z"/>
	</g>
</g>
</svg>
