<?xml version="1.0" encoding="iso-8859-1"?>
<!-- Generator: Adobe Illustrator 18.1.0, SVG Export Plug-In . SVG Version: 6.00 Build 0)  -->
<svg version="1.1" xmlns="http://www.w3.org/2000/svg" xmlns:xlink="http://www.w3.org/1999/xlink" x="0px" y="0px"
	 viewBox="0 0 80 520" style="enable-background:new 0 0 80 520;" xml:space="preserve">
<g id="Layer_2" style="display:none;">
	
		<image style="display:inline;overflow:visible;" width="1347" height="305" xlink:href="../algorithms.png"  transform="matrix(2.4473 0 0 2.4473 -2765.5459 495.4146)">
	</image>
	<rect x="-2709" y="-21" style="display:inline;fill:#333333;" width="3204" height="575"/>
</g>
<g id="Layer_1">
	<g>
		<path style="fill:#BFBFBF;" d="M32,340v23H9v-23H32 M34,338H7v27h27V338L34,338z"/>
	</g>
	<g>
		<path style="fill:#BFBFBF;" d="M53,100v23H30v-23H53 M55,98H28v27h27V98L55,98z"/>
	</g>
	<g>
		<path style="fill:#BFBFBF;" d="M16.804,355.301c0.357-0.85,1.201-1.749,2.531-2.698c1.154-0.826,1.901-1.418,2.241-1.775
			c0.521-0.557,0.782-1.166,0.782-1.828c0-0.539-0.149-0.987-0.448-1.345s-0.727-0.536-1.283-0.536c-0.762,0-1.28,0.284-1.556,0.853
			c-0.158,0.328-0.252,0.85-0.281,1.564h-2.435c0.041-1.084,0.237-1.96,0.589-2.628c0.669-1.271,1.856-1.907,3.563-1.907
			c1.349,0,2.422,0.374,3.22,1.12c0.798,0.748,1.197,1.736,1.197,2.967c0,0.943-0.282,1.781-0.845,2.514
			c-0.37,0.486-0.978,1.028-1.823,1.626l-1.004,0.712c-0.628,0.445-1.058,0.768-1.29,0.967s-0.426,0.431-0.584,0.694h5.563v2.206
			h-8.728C16.239,356.892,16.435,356.057,16.804,355.301z"/>
	</g>
	<g>
		<g>
			<path style="fill:#BFBFBF;" d="M53,180v23H30v-23H53 M55,178H28v27h27V178L55,178z"/>
		</g>
		<g>
			<path style="fill:#BFBFBF;" d="M46.031,194.923h-1.441v2.742h-2.452v-2.742h-5.045v-2.188L41.777,185h2.812v7.963h1.441V194.923z
				 M42.137,192.963v-5.489l-3.181,5.489H42.137z"/>
		</g>
	</g>
	<g>
		<path style="fill:#BFBFBF;" d="M39.72,113.833c0.099,0.545,0.289,0.965,0.57,1.261s0.69,0.444,1.228,0.444
			c0.62,0,1.092-0.218,1.416-0.655c0.325-0.437,0.487-0.986,0.487-1.648c0-0.65-0.152-1.2-0.456-1.648
			c-0.304-0.448-0.777-0.672-1.42-0.672c-0.304,0-0.567,0.038-0.789,0.114c-0.392,0.141-0.687,0.401-0.886,0.782l-2.246-0.105
			l0.895-7.04h7.012v2.127h-5.205l-0.456,2.786c0.386-0.252,0.688-0.419,0.904-0.501c0.363-0.135,0.804-0.202,1.325-0.202
			c1.053,0,1.972,0.354,2.756,1.063s1.176,1.74,1.176,3.094c0,1.178-0.377,2.229-1.133,3.155c-0.755,0.926-1.885,1.389-3.389,1.389
			c-1.211,0-2.207-0.325-2.985-0.976c-0.778-0.65-1.211-1.573-1.299-2.769H39.72z"/>
	</g>
	<g>
		<path style="fill:#BFBFBF;" d="M34,445v-27H7v27H34z M22.257,437.744h-2.566v-8.789h-2.997v-1.705
			c0.789-0.035,1.341-0.088,1.657-0.158c0.503-0.111,0.912-0.334,1.228-0.668c0.216-0.229,0.38-0.533,0.491-0.914
			c0.064-0.229,0.096-0.398,0.096-0.51h2.092V437.744z"/>
	</g>
	<g>
		<path style="fill:#BFBFBF;" d="M55,285v-27H28v27H55z M44.911,276.58c-0.746,0.817-1.851,1.226-3.314,1.226
			c-1.803,0-3.056-0.589-3.758-1.767c-0.369-0.627-0.574-1.447-0.615-2.461h2.461c0,0.51,0.082,0.932,0.246,1.266
			c0.304,0.615,0.856,0.923,1.657,0.923c0.491,0,0.919-0.168,1.285-0.505c0.365-0.337,0.548-0.822,0.548-1.455
			c0-0.838-0.339-1.397-1.017-1.679c-0.385-0.158-0.993-0.237-1.822-0.237v-1.793c0.812-0.012,1.378-0.091,1.699-0.237
			c0.555-0.246,0.832-0.744,0.832-1.494c0-0.486-0.142-0.882-0.425-1.187c-0.283-0.305-0.682-0.457-1.196-0.457
			c-0.59,0-1.024,0.188-1.302,0.562c-0.278,0.375-0.411,0.876-0.399,1.503h-2.338c0.023-0.633,0.132-1.233,0.325-1.802
			c0.205-0.498,0.527-0.958,0.966-1.38c0.328-0.299,0.717-0.527,1.167-0.686s1.004-0.237,1.66-0.237
			c1.217,0,2.199,0.315,2.946,0.945c0.746,0.63,1.119,1.475,1.119,2.536c0,0.75-0.223,1.383-0.668,1.898
			c-0.281,0.322-0.574,0.542-0.879,0.659c0.229,0,0.557,0.196,0.984,0.589c0.639,0.592,0.958,1.4,0.958,2.426
			C46.031,274.814,45.658,275.762,44.911,276.58z"/>
	</g>
	<g>
		<g>
			<line style="fill:none;stroke:#BFBFBF;stroke-width:2;stroke-miterlimit:10;" x1="42" y1="204" x2="42" y2="252"/>
			<g>
				<polygon style="fill:#BFBFBF;" points="38.011,251 42,257.908 45.989,251 				"/>
			</g>
		</g>
	</g>
	<g>
		<g>
			<line style="fill:none;stroke:#BFBFBF;stroke-width:2;stroke-miterlimit:10;" x1="42" y1="123" x2="42" y2="173"/>
			<g>
				<polygon style="fill:#BFBFBF;" points="38.011,172 42,178.908 45.989,172 				"/>
			</g>
		</g>
	</g>
	<g>
		<g>
			<line style="fill:none;stroke:#BFBFBF;stroke-width:2;stroke-miterlimit:10;" x1="63" y1="45" x2="63" y2="493"/>
			<g>
				<polygon style="fill:#BFBFBF;" points="59.011,492 63,498.908 66.989,492 				"/>
			</g>
		</g>
	</g>
	<g>
		<g>
			<line style="fill:none;stroke:#BFBFBF;stroke-width:2;stroke-miterlimit:10;" x1="21" y1="364" x2="21" y2="412"/>
			<g>
				<polygon style="fill:#BFBFBF;" points="17.011,411 21,417.908 24.989,411 				"/>
			</g>
		</g>
	</g>
	<g>
		<g>
			<line style="fill:none;stroke:#BFBFBF;stroke-width:2;stroke-miterlimit:10;" x1="21" y1="445" x2="21" y2="493"/>
			<g>
				<polygon style="fill:#BFBFBF;" points="17.011,492 21,498.908 24.989,492 				"/>
			</g>
		</g>
	</g>
	<g>
		<g>
			<line style="fill:none;stroke:#BFBFBF;stroke-width:2;stroke-miterlimit:10;" x1="42" y1="285" x2="42" y2="493"/>
			<g>
				<polygon style="fill:#BFBFBF;" points="38.011,492 42,498.908 45.989,492 				"/>
			</g>
		</g>
	</g>
	<polygon style="fill:none;stroke:#BFBFBF;stroke-width:2;stroke-miterlimit:10;" points="68.553,500 40,518 11.447,500 	"/>
	<g>
		<g>
			<polyline style="fill:none;stroke:#BFBFBF;stroke-width:2;stroke-miterlimit:10;" points="42,135 22,135 22,85 42,85 42,91 			
				"/>
			<g>
				<polygon style="fill:#BFBFBF;" points="38.011,90 42,96.908 45.989,90 				"/>
			</g>
		</g>
	</g>
	<g>
		<g>
			<path style="fill:#BFBFBF;" d="M62.443,31.733c-0.428,0-0.806,0.129-1.134,0.387c-0.492,0.381-0.738,0.996-0.738,1.846
				c0,0.686,0.185,1.245,0.554,1.679s0.838,0.65,1.406,0.65c0.557,0,0.995-0.209,1.314-0.629c0.319-0.418,0.479-0.962,0.479-1.63
				c0-0.744-0.182-1.313-0.545-1.71C63.416,31.932,62.97,31.733,62.443,31.733z"/>
		</g>
		<g>
			<path style="fill:#BFBFBF;" d="M49,18v27h27V18H49z M65.8,36.972c-0.709,0.908-1.811,1.362-3.305,1.362
				c-1.605,0-2.789-0.671-3.551-2.013c-0.592-1.049-0.888-2.402-0.888-4.061c0-0.973,0.041-1.764,0.123-2.373
				c0.146-1.084,0.431-1.986,0.853-2.707c0.363-0.615,0.839-1.11,1.428-1.485s1.293-0.562,2.114-0.562
				c1.184,0,2.127,0.303,2.83,0.91c0.703,0.605,1.099,1.413,1.187,2.421h-2.496c0-0.205-0.079-0.431-0.237-0.677
				c-0.27-0.398-0.677-0.598-1.222-0.598c-0.814,0-1.395,0.457-1.74,1.371c-0.188,0.504-0.316,1.248-0.387,2.232
				c0.311-0.369,0.671-0.639,1.081-0.809s0.879-0.255,1.406-0.255c1.131,0,2.058,0.384,2.782,1.151s1.085,1.749,1.085,2.944
				C66.864,35.015,66.509,36.063,65.8,36.972z"/>
		</g>
	</g>
</g>
</svg>
