<?xml version="1.0" encoding="iso-8859-1"?>
<!-- Generator: Adobe Illustrator 18.1.0, SVG Export Plug-In . SVG Version: 6.00 Build 0)  -->
<svg version="1.1" id="Layer_1" xmlns="http://www.w3.org/2000/svg" xmlns:xlink="http://www.w3.org/1999/xlink" x="0px" y="0px"
	 viewBox="0 0 223 56" style="enable-background:new 0 0 223 56;" xml:space="preserve">
<g>
	<rect x="6" y="34" style="opacity:0.07;" width="10" height="14"/>
	<rect x="18" y="34" style="opacity:0.07;" width="10" height="14"/>
	<rect x="30" y="34" style="opacity:0.07;" width="10" height="14"/>
	<rect x="42" y="34" style="opacity:0.07;" width="10" height="14"/>
	<rect x="54" y="34" style="opacity:0.07;" width="10" height="14"/>
	<rect x="66" y="34" style="opacity:0.07;" width="10" height="14"/>
	<rect x="78" y="34" style="opacity:0.07;" width="10" height="14"/>
	<rect x="90" y="34" style="opacity:0.07;" width="10" height="14"/>
	<rect x="102" y="34" style="opacity:0.07;" width="10" height="14"/>
	<rect x="114" y="34" style="opacity:0.07;" width="10" height="14"/>
	<rect x="126" y="34" style="opacity:0.07;" width="10" height="14"/>
	<rect x="138" y="34" style="opacity:0.07;" width="10" height="14"/>
	<rect x="150" y="34" style="opacity:0.07;" width="10" height="14"/>
	<rect x="162" y="34" style="opacity:0.07;" width="10" height="14"/>
	<rect x="174" y="34" style="opacity:0.07;" width="10" height="14"/>
	<rect x="186" y="34" style="opacity:0.07;" width="10" height="14"/>
	<rect x="198" y="34" style="opacity:0.07;" width="10" height="14"/>
	<rect x="210" y="34" style="opacity:0.07;" width="10" height="14"/>
	<rect x="6" y="13" style="opacity:0.07;" width="10" height="14"/>
	<rect x="18" y="13" style="opacity:0.07;" width="10" height="14"/>
	<rect x="30" y="13" style="opacity:0.07;" width="10" height="14"/>
	<rect x="42" y="13" style="opacity:0.07;" width="10" height="14"/>
	<rect x="54" y="13" style="opacity:0.07;" width="10" height="14"/>
	<rect x="66" y="13" style="opacity:0.07;" width="10" height="14"/>
	<rect x="78" y="13" style="opacity:0.07;" width="10" height="14"/>
	<rect x="90" y="13" style="opacity:0.07;" width="10" height="14"/>
	<rect x="102" y="13" style="opacity:0.07;" width="10" height="14"/>
	<rect x="114" y="13" style="opacity:0.07;" width="10" height="14"/>
	<rect x="126" y="13" style="opacity:0.07;" width="10" height="14"/>
	<rect x="138" y="13" style="opacity:0.07;" width="10" height="14"/>
	<rect x="150" y="13" style="opacity:0.07;" width="10" height="14"/>
	<rect x="162" y="13" style="opacity:0.07;" width="10" height="14"/>
	<rect x="174" y="13" style="opacity:0.07;" width="10" height="14"/>
	<rect x="186" y="13" style="opacity:0.07;" width="10" height="14"/>
	<rect x="198" y="13" style="opacity:0.07;" width="10" height="14"/>
	<rect x="210" y="13" style="opacity:0.07;" width="10" height="14"/>
	<rect style="fill:none;" width="223" height="56"/>
</g>
<g>
</g>
<g>
</g>
<g>
</g>
<g>
</g>
<g>
</g>
<g>
</g>
<g>
</g>
<g>
</g>
<g>
</g>
<g>
</g>
<g>
</g>
<g>
</g>
<g>
</g>
<g>
</g>
<g>
</g>
</svg>
